<svg xmlns="http://www.w3.org/2000/svg" xmlns:xlink="http://www.w3.org/1999/xlink" width="2049" zoomAndPan="magnify" viewBox="0 0 1536.75 863.999991" height="1152" preserveAspectRatio="xMidYMid meet" version="1.0"><defs><clipPath id="aaefcf82a6"><path d="M 968 0.0703125 L 1536.5 0.0703125 L 1536.5 863.929688 L 968 863.929688 Z M 968 0.0703125 " clip-rule="nonzero"/></clipPath><clipPath id="6d7c4fcec5"><path d="M 1483.980469 -121.023438 L 1875.285156 90.21875 L 1359.71875 1045.257812 L 968.414062 834.015625 Z M 1483.980469 -121.023438 " clip-rule="nonzero"/></clipPath><clipPath id="f3b2e429b8"><path d="M 0.242188 0.0703125 L 568.5 0.0703125 L 568.5 863.929688 L 0.242188 863.929688 Z M 0.242188 0.0703125 " clip-rule="nonzero"/></clipPath><clipPath id="fe9a870384"><path d="M 515.980469 -121.023438 L 907.285156 90.21875 L 391.71875 1045.257812 L 0.414062 834.015625 Z M 515.980469 -121.023438 " clip-rule="nonzero"/></clipPath><clipPath id="3af28d8baa"><rect x="0" width="569" y="0" height="864"/></clipPath><clipPath id="c072684c72"><path d="M 392 671 L 1536.5 671 L 1536.5 863.929688 L 392 863.929688 Z M 392 671 " clip-rule="nonzero"/></clipPath><clipPath id="4292708f72"><path d="M 1556.121094 671.152344 L 1591.402344 873.429688 L 427.355469 1076.460938 L 392.078125 874.183594 Z M 1556.121094 671.152344 " clip-rule="nonzero"/></clipPath><clipPath id="682062690c"><path d="M 0 0 L 1144.5 0 L 1144.5 192.929688 L 0 192.929688 Z M 0 0 " clip-rule="nonzero"/></clipPath><clipPath id="ae437dc6f1"><path d="M 1164.121094 0.152344 L 1199.402344 202.429688 L 35.355469 405.460938 L 0.078125 203.183594 Z M 1164.121094 0.152344 " clip-rule="nonzero"/></clipPath><clipPath id="283a9113af"><rect x="0" width="1145" y="0" height="193"/></clipPath><clipPath id="f58fb29095"><path d="M 248.066406 471.632812 L 593.761719 471.632812 L 593.761719 593.863281 L 248.066406 593.863281 Z M 248.066406 471.632812 " clip-rule="nonzero"/></clipPath><clipPath id="9a315ca98a"><path d="M 0.21875 0.632812 L 78 0.632812 L 78 122.511719 L 0.21875 122.511719 Z M 0.21875 0.632812 " clip-rule="nonzero"/></clipPath><clipPath id="c4a08e3ea1"><path d="M 89 0.632812 L 167 0.632812 L 167 122.511719 L 89 122.511719 Z M 89 0.632812 " clip-rule="nonzero"/></clipPath><clipPath id="30f1d1f76a"><path d="M 179 0.632812 L 257 0.632812 L 257 122.511719 L 179 122.511719 Z M 179 0.632812 " clip-rule="nonzero"/></clipPath><clipPath id="962b6d4728"><path d="M 268 0.632812 L 345.664062 0.632812 L 345.664062 122.511719 L 268 122.511719 Z M 268 0.632812 " clip-rule="nonzero"/></clipPath><clipPath id="4f84c859b7"><rect x="0" width="346" y="0" height="123"/></clipPath><clipPath id="ea47bafb6a"><path d="M 46.386719 208.601562 L 392 208.601562 L 392 330.832031 L 46.386719 330.832031 Z M 46.386719 208.601562 " clip-rule="nonzero"/></clipPath><clipPath id="ae90ffb1d9"><path d="M 0.539062 0.601562 L 78 0.601562 L 78 122.480469 L 0.539062 122.480469 Z M 0.539062 0.601562 " clip-rule="nonzero"/></clipPath><clipPath id="f9e5764e41"><path d="M 90 0.601562 L 168 0.601562 L 168 122.480469 L 90 122.480469 Z M 90 0.601562 " clip-rule="nonzero"/></clipPath><clipPath id="ed460d2d37"><path d="M 179 0.601562 L 257 0.601562 L 257 122.480469 L 179 122.480469 Z M 179 0.601562 " clip-rule="nonzero"/></clipPath><clipPath id="a276a8eecc"><path d="M 268 0.601562 L 345.855469 0.601562 L 345.855469 122.480469 L 268 122.480469 Z M 268 0.601562 " clip-rule="nonzero"/></clipPath><clipPath id="43d10c231e"><rect x="0" width="346" y="0" height="123"/></clipPath></defs><g clip-path="url(#aaefcf82a6)"><g clip-path="url(#6d7c4fcec5)"><g transform="matrix(1, 0, 0, 1, 968, -0.000000000000006467)"><g clip-path="url(#3af28d8baa)"><g clip-path="url(#f3b2e429b8)"><g clip-path="url(#fe9a870384)"><path fill="#004aad" d="M 515.980469 -121.023438 L 907.285156 90.21875 L 391.558594 1045.554688 L 0.253906 834.3125 Z M 515.980469 -121.023438 " fill-opacity="1" fill-rule="nonzero"/></g></g></g></g></g></g><g clip-path="url(#c072684c72)"><g clip-path="url(#4292708f72)"><g transform="matrix(1, 0, 0, 1, 392, 671)"><g clip-path="url(#283a9113af)"><g clip-path="url(#682062690c)"><g clip-path="url(#ae437dc6f1)"><path fill="#efdb42" d="M 1164.121094 0.152344 L 1199.402344 202.429688 L 35.523438 405.429688 L 0.242188 203.15625 Z M 1164.121094 0.152344 " fill-opacity="1" fill-rule="nonzero"/></g></g></g></g></g></g><g clip-path="url(#f58fb29095)"><g transform="matrix(1, 0, 0, 1, 248, 471)"><g clip-path="url(#4f84c859b7)"><g clip-path="url(#9a315ca98a)"><path fill="#004aad" d="M 77.050781 107.359375 C 77.164062 107.25 77.246094 107.121094 77.308594 106.980469 C 77.367188 106.835938 77.398438 106.683594 77.398438 106.53125 C 77.398438 106.375 77.367188 106.222656 77.308594 106.082031 C 77.246094 105.9375 77.164062 105.808594 77.050781 105.699219 L 32.9375 61.585938 L 77.050781 17.476562 C 77.285156 17.25 77.398438 16.972656 77.394531 16.644531 C 77.398438 16.320312 77.28125 16.046875 77.050781 15.816406 L 62.25 1.015625 C 62.140625 0.90625 62.015625 0.820312 61.871094 0.757812 C 61.726562 0.699219 61.578125 0.667969 61.421875 0.667969 C 61.265625 0.667969 61.117188 0.699219 60.972656 0.757812 C 60.828125 0.820312 60.703125 0.90625 60.59375 1.015625 L 0.84375 60.757812 C 0.730469 60.867188 0.644531 60.996094 0.585938 61.136719 C 0.527344 61.28125 0.496094 61.433594 0.496094 61.585938 C 0.496094 61.742188 0.527344 61.894531 0.585938 62.035156 C 0.644531 62.179688 0.730469 62.308594 0.84375 62.417969 L 60.59375 122.167969 C 60.703125 122.277344 60.828125 122.363281 60.972656 122.421875 C 61.117188 122.484375 61.265625 122.511719 61.421875 122.511719 C 61.578125 122.511719 61.726562 122.484375 61.871094 122.421875 C 62.015625 122.363281 62.140625 122.277344 62.25 122.167969 Z M 3.328125 61.585938 L 61.421875 3.503906 L 74.5625 16.644531 L 30.453125 60.757812 C 30.226562 60.988281 30.109375 61.265625 30.105469 61.585938 C 30.105469 61.910156 30.222656 62.1875 30.453125 62.417969 L 74.5625 106.53125 L 61.421875 119.679688 Z M 3.328125 61.585938 " fill-opacity="1" fill-rule="nonzero"/></g><g clip-path="url(#c4a08e3ea1)"><path fill="#004aad" d="M 90.164062 60.757812 C 90.054688 60.867188 89.96875 60.996094 89.910156 61.140625 C 89.851562 61.285156 89.824219 61.433594 89.824219 61.585938 C 89.824219 61.742188 89.851562 61.890625 89.910156 62.035156 C 89.96875 62.179688 90.054688 62.304688 90.164062 62.417969 L 149.914062 122.167969 C 150.023438 122.277344 150.148438 122.363281 150.292969 122.421875 C 150.4375 122.484375 150.585938 122.511719 150.742188 122.511719 C 150.898438 122.511719 151.046875 122.484375 151.191406 122.421875 C 151.335938 122.363281 151.460938 122.277344 151.570312 122.167969 L 166.378906 107.359375 C 166.488281 107.25 166.574219 107.121094 166.632812 106.976562 C 166.691406 106.835938 166.71875 106.683594 166.71875 106.53125 C 166.71875 106.375 166.691406 106.226562 166.632812 106.082031 C 166.574219 105.9375 166.488281 105.8125 166.378906 105.699219 L 122.265625 61.585938 L 166.378906 17.476562 C 166.609375 17.246094 166.722656 16.96875 166.722656 16.644531 C 166.722656 16.324219 166.605469 16.046875 166.378906 15.816406 L 151.570312 1.015625 C 151.460938 0.90625 151.335938 0.820312 151.191406 0.757812 C 151.046875 0.699219 150.898438 0.667969 150.742188 0.667969 C 150.585938 0.667969 150.4375 0.699219 150.292969 0.757812 C 150.148438 0.820312 150.023438 0.90625 149.914062 1.015625 Z M 163.890625 16.644531 L 119.777344 60.757812 C 119.546875 60.988281 119.433594 61.261719 119.433594 61.585938 C 119.429688 61.914062 119.546875 62.191406 119.777344 62.417969 L 163.890625 106.53125 L 150.742188 119.679688 L 92.65625 61.585938 L 150.742188 3.503906 Z M 163.890625 16.644531 " fill-opacity="1" fill-rule="nonzero"/></g><g clip-path="url(#30f1d1f76a)"><path fill="#004aad" d="M 179.492188 60.757812 C 179.378906 60.867188 179.292969 60.996094 179.234375 61.136719 C 179.175781 61.28125 179.144531 61.433594 179.144531 61.585938 C 179.144531 61.742188 179.175781 61.894531 179.234375 62.035156 C 179.292969 62.179688 179.378906 62.308594 179.492188 62.417969 L 239.242188 122.167969 C 239.46875 122.394531 239.746094 122.511719 240.070312 122.511719 C 240.394531 122.507812 240.667969 122.394531 240.898438 122.167969 L 255.699219 107.359375 C 255.8125 107.25 255.894531 107.121094 255.957031 106.980469 C 256.015625 106.835938 256.046875 106.683594 256.046875 106.53125 C 256.046875 106.375 256.015625 106.222656 255.957031 106.082031 C 255.894531 105.9375 255.8125 105.808594 255.699219 105.699219 L 211.585938 61.585938 L 255.699219 17.476562 C 255.933594 17.25 256.046875 16.972656 256.042969 16.644531 C 256.046875 16.320312 255.929688 16.042969 255.699219 15.816406 L 240.898438 1.015625 C 240.667969 0.789062 240.394531 0.675781 240.070312 0.671875 C 239.746094 0.671875 239.46875 0.785156 239.242188 1.015625 Z M 253.210938 16.644531 L 209.097656 60.757812 C 208.871094 60.988281 208.757812 61.265625 208.753906 61.585938 C 208.753906 61.910156 208.871094 62.1875 209.097656 62.417969 L 253.210938 106.53125 L 240.070312 119.679688 L 181.984375 61.585938 L 240.078125 3.503906 Z M 253.210938 16.644531 " fill-opacity="1" fill-rule="nonzero"/></g><g clip-path="url(#962b6d4728)"><path fill="#004aad" d="M 268.820312 60.757812 C 268.707031 60.867188 268.621094 60.996094 268.5625 61.136719 C 268.503906 61.28125 268.472656 61.433594 268.472656 61.585938 C 268.472656 61.742188 268.503906 61.894531 268.5625 62.035156 C 268.621094 62.179688 268.707031 62.308594 268.820312 62.417969 L 328.5625 122.167969 C 328.789062 122.394531 329.066406 122.507812 329.390625 122.511719 C 329.714844 122.511719 329.992188 122.394531 330.21875 122.167969 L 345.027344 107.359375 C 345.136719 107.25 345.21875 107.121094 345.28125 106.976562 C 345.339844 106.835938 345.367188 106.683594 345.367188 106.53125 C 345.367188 106.375 345.339844 106.226562 345.28125 106.082031 C 345.21875 105.9375 345.136719 105.8125 345.027344 105.699219 L 300.890625 61.585938 L 345.003906 17.476562 C 345.234375 17.246094 345.347656 16.96875 345.347656 16.644531 C 345.34375 16.324219 345.230469 16.046875 345.003906 15.816406 L 330.195312 1.015625 C 329.96875 0.785156 329.691406 0.671875 329.367188 0.671875 C 329.042969 0.675781 328.765625 0.789062 328.539062 1.015625 Z M 342.539062 16.644531 L 298.425781 60.757812 C 298.195312 60.988281 298.082031 61.261719 298.082031 61.585938 C 298.078125 61.914062 298.195312 62.191406 298.425781 62.417969 L 342.539062 106.53125 L 329.390625 119.679688 L 271.304688 61.585938 L 329.390625 3.503906 Z M 342.539062 16.644531 " fill-opacity="1" fill-rule="nonzero"/></g></g></g></g><g clip-path="url(#ea47bafb6a)"><g transform="matrix(1, 0, 0, 1, 46, 208)"><g clip-path="url(#43d10c231e)"><g clip-path="url(#ae90ffb1d9)"><path fill="#004aad" d="M 77.371094 107.328125 C 77.480469 107.21875 77.566406 107.09375 77.628906 106.949219 C 77.6875 106.804688 77.71875 106.65625 77.71875 106.5 C 77.71875 106.34375 77.6875 106.195312 77.628906 106.050781 C 77.566406 105.90625 77.480469 105.78125 77.371094 105.667969 L 33.257812 61.558594 L 77.371094 17.445312 C 77.605469 17.21875 77.71875 16.941406 77.714844 16.617188 C 77.71875 16.289062 77.601562 16.015625 77.371094 15.785156 L 62.570312 0.984375 C 62.460938 0.875 62.335938 0.789062 62.191406 0.730469 C 62.046875 0.667969 61.898438 0.640625 61.742188 0.640625 C 61.585938 0.640625 61.4375 0.667969 61.292969 0.730469 C 61.148438 0.789062 61.023438 0.875 60.914062 0.984375 L 1.164062 60.726562 C 1.050781 60.835938 0.964844 60.964844 0.90625 61.109375 C 0.847656 61.25 0.816406 61.402344 0.816406 61.558594 C 0.816406 61.714844 0.847656 61.863281 0.90625 62.007812 C 0.964844 62.152344 1.050781 62.277344 1.164062 62.386719 L 60.914062 122.136719 C 61.023438 122.246094 61.148438 122.332031 61.292969 122.394531 C 61.4375 122.453125 61.585938 122.484375 61.742188 122.484375 C 61.898438 122.484375 62.046875 122.453125 62.191406 122.394531 C 62.335938 122.332031 62.460938 122.246094 62.570312 122.136719 Z M 3.648438 61.558594 L 61.742188 3.472656 L 74.882812 16.617188 L 30.769531 60.726562 C 30.542969 60.957031 30.429688 61.234375 30.425781 61.558594 C 30.425781 61.882812 30.542969 62.15625 30.769531 62.386719 L 74.882812 106.5 L 61.742188 119.648438 Z M 3.648438 61.558594 " fill-opacity="1" fill-rule="nonzero"/></g><g clip-path="url(#f9e5764e41)"><path fill="#004aad" d="M 90.480469 60.726562 C 90.375 60.839844 90.289062 60.964844 90.230469 61.109375 C 90.171875 61.253906 90.140625 61.402344 90.140625 61.558594 C 90.140625 61.710938 90.171875 61.863281 90.230469 62.003906 C 90.289062 62.148438 90.375 62.277344 90.480469 62.386719 L 150.234375 122.136719 C 150.34375 122.246094 150.46875 122.332031 150.613281 122.394531 C 150.757812 122.453125 150.90625 122.484375 151.0625 122.484375 C 151.21875 122.484375 151.367188 122.453125 151.511719 122.394531 C 151.65625 122.332031 151.78125 122.246094 151.890625 122.136719 L 166.699219 107.328125 C 166.808594 107.21875 166.890625 107.089844 166.953125 106.945312 C 167.011719 106.804688 167.039062 106.652344 167.039062 106.5 C 167.039062 106.34375 167.011719 106.195312 166.953125 106.050781 C 166.890625 105.90625 166.808594 105.78125 166.699219 105.667969 L 122.585938 61.558594 L 166.699219 17.445312 C 166.929688 17.214844 167.042969 16.941406 167.042969 16.617188 C 167.039062 16.292969 166.925781 16.015625 166.699219 15.785156 L 151.890625 0.984375 C 151.78125 0.875 151.65625 0.789062 151.511719 0.730469 C 151.367188 0.667969 151.21875 0.640625 151.0625 0.640625 C 150.90625 0.640625 150.757812 0.667969 150.613281 0.730469 C 150.46875 0.789062 150.34375 0.875 150.234375 0.984375 Z M 164.210938 16.617188 L 120.097656 60.726562 C 119.867188 60.957031 119.753906 61.234375 119.753906 61.558594 C 119.75 61.882812 119.867188 62.160156 120.097656 62.386719 L 164.210938 106.5 L 151.0625 119.648438 L 92.976562 61.558594 L 151.0625 3.472656 Z M 164.210938 16.617188 " fill-opacity="1" fill-rule="nonzero"/></g><g clip-path="url(#ed460d2d37)"><path fill="#004aad" d="M 179.808594 60.726562 C 179.699219 60.835938 179.613281 60.964844 179.554688 61.109375 C 179.492188 61.25 179.464844 61.402344 179.464844 61.558594 C 179.464844 61.714844 179.492188 61.863281 179.554688 62.007812 C 179.613281 62.152344 179.699219 62.277344 179.808594 62.386719 L 239.5625 122.136719 C 239.789062 122.367188 240.066406 122.480469 240.390625 122.480469 C 240.714844 122.480469 240.988281 122.363281 241.21875 122.136719 L 256.019531 107.328125 C 256.128906 107.21875 256.214844 107.09375 256.277344 106.949219 C 256.335938 106.804688 256.367188 106.65625 256.367188 106.5 C 256.367188 106.34375 256.335938 106.195312 256.277344 106.050781 C 256.214844 105.90625 256.128906 105.78125 256.019531 105.667969 L 211.90625 61.558594 L 256.019531 17.445312 C 256.253906 17.21875 256.367188 16.941406 256.363281 16.617188 C 256.367188 16.289062 256.25 16.015625 256.019531 15.785156 L 241.21875 0.984375 C 240.988281 0.757812 240.714844 0.644531 240.390625 0.640625 C 240.066406 0.640625 239.789062 0.757812 239.5625 0.984375 Z M 253.53125 16.617188 L 209.417969 60.726562 C 209.191406 60.957031 209.078125 61.234375 209.074219 61.558594 C 209.074219 61.882812 209.191406 62.15625 209.417969 62.386719 L 253.53125 106.5 L 240.390625 119.648438 L 182.304688 61.558594 L 240.398438 3.472656 Z M 253.53125 16.617188 " fill-opacity="1" fill-rule="nonzero"/></g><g clip-path="url(#a276a8eecc)"><path fill="#004aad" d="M 269.136719 60.726562 C 269.027344 60.835938 268.941406 60.964844 268.882812 61.109375 C 268.820312 61.25 268.792969 61.402344 268.792969 61.558594 C 268.792969 61.714844 268.820312 61.863281 268.882812 62.007812 C 268.941406 62.152344 269.027344 62.277344 269.136719 62.386719 L 328.882812 122.136719 C 329.109375 122.363281 329.386719 122.480469 329.710938 122.480469 C 330.035156 122.480469 330.3125 122.367188 330.539062 122.136719 L 345.347656 107.328125 C 345.457031 107.21875 345.539062 107.089844 345.597656 106.945312 C 345.660156 106.804688 345.6875 106.652344 345.6875 106.5 C 345.6875 106.34375 345.660156 106.195312 345.597656 106.050781 C 345.539062 105.90625 345.457031 105.78125 345.347656 105.667969 L 301.210938 61.558594 L 345.324219 17.445312 C 345.554688 17.214844 345.667969 16.941406 345.667969 16.617188 C 345.664062 16.292969 345.550781 16.015625 345.324219 15.785156 L 330.515625 0.984375 C 330.285156 0.757812 330.011719 0.640625 329.6875 0.640625 C 329.363281 0.644531 329.085938 0.757812 328.859375 0.984375 Z M 342.859375 16.617188 L 298.746094 60.726562 C 298.515625 60.957031 298.402344 61.234375 298.402344 61.558594 C 298.398438 61.882812 298.515625 62.160156 298.746094 62.386719 L 342.859375 106.5 L 329.710938 119.648438 L 271.625 61.558594 L 329.710938 3.472656 Z M 342.859375 16.617188 " fill-opacity="1" fill-rule="nonzero"/></g></g></g></g></svg>