<svg xmlns="http://www.w3.org/2000/svg" xmlns:xlink="http://www.w3.org/1999/xlink" width="2049" zoomAndPan="magnify" viewBox="0 0 1536.75 863.999991" height="1152" preserveAspectRatio="xMidYMid meet" version="1.0"><defs><clipPath id="478539c8f2"><path d="M 67.5625 259.503906 L 559.484375 259.503906 L 559.484375 863.929688 L 67.5625 863.929688 Z M 67.5625 259.503906 " clip-rule="nonzero"/></clipPath><clipPath id="c32b333f6c"><path d="M 0.5625 0.503906 L 492.449219 0.503906 L 492.449219 604.929688 L 0.5625 604.929688 Z M 0.5625 0.503906 " clip-rule="nonzero"/></clipPath><clipPath id="3b20cff89f"><path d="M 162.4375 0.621094 L 0.523438 0.621094 L 330.574219 831.933594 L 492.484375 831.933594 Z M 162.4375 0.621094 " clip-rule="nonzero"/></clipPath><linearGradient x1="0.187" gradientTransform="matrix(0.67632, 0, 0, -0.67632, 0.393767, 832.298451)" y1="336.185211" x2="0.187" gradientUnits="userSpaceOnUse" y2="1229.70996" id="5c9971a692"><stop stop-opacity="1" stop-color="rgb(0%, 22.746277%, 35.91156%)" offset="0"/><stop stop-opacity="1" stop-color="rgb(0%, 22.770691%, 36.036682%)" offset="0.0078125"/><stop stop-opacity="1" stop-color="rgb(0%, 22.819519%, 36.2854%)" offset="0.015625"/><stop stop-opacity="1" stop-color="rgb(0%, 22.868347%, 36.535645%)" offset="0.0234375"/><stop stop-opacity="1" stop-color="rgb(0%, 22.917175%, 36.784363%)" offset="0.03125"/><stop stop-opacity="1" stop-color="rgb(0%, 22.966003%, 37.034607%)" offset="0.0390625"/><stop stop-opacity="1" stop-color="rgb(0%, 23.014832%, 37.283325%)" offset="0.046875"/><stop stop-opacity="1" stop-color="rgb(0%, 23.06366%, 37.533569%)" offset="0.0546875"/><stop stop-opacity="1" stop-color="rgb(0%, 23.114014%, 37.782288%)" offset="0.0625"/><stop stop-opacity="1" stop-color="rgb(0%, 23.162842%, 38.032532%)" offset="0.0703125"/><stop stop-opacity="1" stop-color="rgb(0%, 23.21167%, 38.28125%)" offset="0.078125"/><stop stop-opacity="1" stop-color="rgb(0%, 23.260498%, 38.529968%)" offset="0.0859375"/><stop stop-opacity="1" stop-color="rgb(0%, 23.309326%, 38.780212%)" offset="0.09375"/><stop stop-opacity="1" stop-color="rgb(0%, 23.358154%, 39.028931%)" offset="0.101563"/><stop stop-opacity="1" stop-color="rgb(0%, 23.406982%, 39.279175%)" offset="0.109375"/><stop stop-opacity="1" stop-color="rgb(0%, 23.455811%, 39.527893%)" offset="0.117188"/><stop stop-opacity="1" stop-color="rgb(0%, 23.504639%, 39.778137%)" offset="0.125"/><stop stop-opacity="1" stop-color="rgb(0%, 23.554993%, 40.026855%)" offset="0.132813"/><stop stop-opacity="1" stop-color="rgb(0%, 23.603821%, 40.2771%)" offset="0.140625"/><stop stop-opacity="1" stop-color="rgb(0%, 23.652649%, 40.525818%)" offset="0.148438"/><stop stop-opacity="1" stop-color="rgb(0%, 23.701477%, 40.776062%)" offset="0.15625"/><stop stop-opacity="1" stop-color="rgb(0%, 23.750305%, 41.02478%)" offset="0.164063"/><stop stop-opacity="1" stop-color="rgb(0%, 23.799133%, 41.275024%)" offset="0.171875"/><stop stop-opacity="1" stop-color="rgb(0%, 23.847961%, 41.523743%)" offset="0.179688"/><stop stop-opacity="1" stop-color="rgb(0%, 23.89679%, 41.772461%)" offset="0.1875"/><stop stop-opacity="1" stop-color="rgb(0%, 23.947144%, 42.022705%)" offset="0.195313"/><stop stop-opacity="1" stop-color="rgb(0%, 23.995972%, 42.271423%)" offset="0.203125"/><stop stop-opacity="1" stop-color="rgb(0%, 24.0448%, 42.521667%)" offset="0.210938"/><stop stop-opacity="1" stop-color="rgb(0%, 24.093628%, 42.770386%)" offset="0.21875"/><stop stop-opacity="1" stop-color="rgb(0%, 24.142456%, 43.02063%)" offset="0.226563"/><stop stop-opacity="1" stop-color="rgb(0%, 24.191284%, 43.269348%)" offset="0.234375"/><stop stop-opacity="1" stop-color="rgb(0%, 24.240112%, 43.519592%)" offset="0.242188"/><stop stop-opacity="1" stop-color="rgb(0%, 24.28894%, 43.768311%)" offset="0.25"/><stop stop-opacity="1" stop-color="rgb(0%, 24.337769%, 44.018555%)" offset="0.257813"/><stop stop-opacity="1" stop-color="rgb(0%, 24.388123%, 44.267273%)" offset="0.265625"/><stop stop-opacity="1" stop-color="rgb(0%, 24.436951%, 44.517517%)" offset="0.273438"/><stop stop-opacity="1" stop-color="rgb(0%, 24.485779%, 44.766235%)" offset="0.28125"/><stop stop-opacity="1" stop-color="rgb(0%, 24.534607%, 45.016479%)" offset="0.289063"/><stop stop-opacity="1" stop-color="rgb(0%, 24.583435%, 45.265198%)" offset="0.296875"/><stop stop-opacity="1" stop-color="rgb(0%, 24.632263%, 45.513916%)" offset="0.304688"/><stop stop-opacity="1" stop-color="rgb(0%, 24.681091%, 45.76416%)" offset="0.3125"/><stop stop-opacity="1" stop-color="rgb(0%, 24.729919%, 46.012878%)" offset="0.320313"/><stop stop-opacity="1" stop-color="rgb(0%, 24.780273%, 46.263123%)" offset="0.328125"/><stop stop-opacity="1" stop-color="rgb(0%, 24.829102%, 46.511841%)" offset="0.335938"/><stop stop-opacity="1" stop-color="rgb(0%, 24.87793%, 46.762085%)" offset="0.34375"/><stop stop-opacity="1" stop-color="rgb(0%, 24.926758%, 47.010803%)" offset="0.351563"/><stop stop-opacity="1" stop-color="rgb(0%, 24.975586%, 47.261047%)" offset="0.359375"/><stop stop-opacity="1" stop-color="rgb(0%, 25.024414%, 47.509766%)" offset="0.367188"/><stop stop-opacity="1" stop-color="rgb(0%, 25.073242%, 47.76001%)" offset="0.375"/><stop stop-opacity="1" stop-color="rgb(0%, 25.12207%, 48.008728%)" offset="0.382813"/><stop stop-opacity="1" stop-color="rgb(0%, 25.172424%, 48.258972%)" offset="0.390625"/><stop stop-opacity="1" stop-color="rgb(0%, 25.221252%, 48.50769%)" offset="0.398438"/><stop stop-opacity="1" stop-color="rgb(0%, 25.270081%, 48.756409%)" offset="0.40625"/><stop stop-opacity="1" stop-color="rgb(0%, 25.318909%, 49.006653%)" offset="0.414062"/><stop stop-opacity="1" stop-color="rgb(0%, 25.367737%, 49.255371%)" offset="0.421875"/><stop stop-opacity="1" stop-color="rgb(0%, 25.416565%, 49.505615%)" offset="0.429688"/><stop stop-opacity="1" stop-color="rgb(0%, 25.465393%, 49.754333%)" offset="0.4375"/><stop stop-opacity="1" stop-color="rgb(0%, 25.514221%, 50.004578%)" offset="0.445312"/><stop stop-opacity="1" stop-color="rgb(0%, 25.563049%, 50.253296%)" offset="0.453125"/><stop stop-opacity="1" stop-color="rgb(0%, 25.613403%, 50.50354%)" offset="0.460938"/><stop stop-opacity="1" stop-color="rgb(0%, 25.662231%, 50.752258%)" offset="0.46875"/><stop stop-opacity="1" stop-color="rgb(0%, 25.71106%, 51.002502%)" offset="0.476562"/><stop stop-opacity="1" stop-color="rgb(0%, 25.759888%, 51.251221%)" offset="0.484375"/><stop stop-opacity="1" stop-color="rgb(0%, 25.808716%, 51.501465%)" offset="0.492188"/><stop stop-opacity="1" stop-color="rgb(0%, 25.857544%, 51.750183%)" offset="0.5"/><stop stop-opacity="1" stop-color="rgb(0%, 25.906372%, 51.998901%)" offset="0.507812"/><stop stop-opacity="1" stop-color="rgb(0%, 25.9552%, 52.249146%)" offset="0.515625"/><stop stop-opacity="1" stop-color="rgb(0%, 26.005554%, 52.497864%)" offset="0.523438"/><stop stop-opacity="1" stop-color="rgb(0%, 26.054382%, 52.748108%)" offset="0.53125"/><stop stop-opacity="1" stop-color="rgb(0%, 26.10321%, 52.996826%)" offset="0.539062"/><stop stop-opacity="1" stop-color="rgb(0%, 26.152039%, 53.24707%)" offset="0.546875"/><stop stop-opacity="1" stop-color="rgb(0%, 26.200867%, 53.495789%)" offset="0.554688"/><stop stop-opacity="1" stop-color="rgb(0%, 26.249695%, 53.746033%)" offset="0.5625"/><stop stop-opacity="1" stop-color="rgb(0%, 26.298523%, 53.994751%)" offset="0.570313"/><stop stop-opacity="1" stop-color="rgb(0%, 26.347351%, 54.244995%)" offset="0.578125"/><stop stop-opacity="1" stop-color="rgb(0%, 26.397705%, 54.493713%)" offset="0.585938"/><stop stop-opacity="1" stop-color="rgb(0%, 26.446533%, 54.743958%)" offset="0.59375"/><stop stop-opacity="1" stop-color="rgb(0%, 26.495361%, 54.992676%)" offset="0.601563"/><stop stop-opacity="1" stop-color="rgb(0%, 26.544189%, 55.24292%)" offset="0.609375"/><stop stop-opacity="1" stop-color="rgb(0%, 26.593018%, 55.491638%)" offset="0.617188"/><stop stop-opacity="1" stop-color="rgb(0%, 26.641846%, 55.740356%)" offset="0.625"/><stop stop-opacity="1" stop-color="rgb(0%, 26.690674%, 55.990601%)" offset="0.632813"/><stop stop-opacity="1" stop-color="rgb(0%, 26.739502%, 56.239319%)" offset="0.640625"/><stop stop-opacity="1" stop-color="rgb(0%, 26.78833%, 56.489563%)" offset="0.648438"/><stop stop-opacity="1" stop-color="rgb(0%, 26.838684%, 56.738281%)" offset="0.65625"/><stop stop-opacity="1" stop-color="rgb(0%, 26.887512%, 56.988525%)" offset="0.664062"/><stop stop-opacity="1" stop-color="rgb(0%, 26.93634%, 57.237244%)" offset="0.671875"/><stop stop-opacity="1" stop-color="rgb(0%, 26.985168%, 57.487488%)" offset="0.679688"/><stop stop-opacity="1" stop-color="rgb(0%, 27.033997%, 57.736206%)" offset="0.6875"/><stop stop-opacity="1" stop-color="rgb(0%, 27.082825%, 57.98645%)" offset="0.695312"/><stop stop-opacity="1" stop-color="rgb(0%, 27.131653%, 58.235168%)" offset="0.703125"/><stop stop-opacity="1" stop-color="rgb(0%, 27.180481%, 58.485413%)" offset="0.710938"/><stop stop-opacity="1" stop-color="rgb(0%, 27.230835%, 58.734131%)" offset="0.71875"/><stop stop-opacity="1" stop-color="rgb(0%, 27.279663%, 58.982849%)" offset="0.726562"/><stop stop-opacity="1" stop-color="rgb(0%, 27.328491%, 59.233093%)" offset="0.734375"/><stop stop-opacity="1" stop-color="rgb(0%, 27.377319%, 59.481812%)" offset="0.742188"/><stop stop-opacity="1" stop-color="rgb(0%, 27.426147%, 59.732056%)" offset="0.75"/><stop stop-opacity="1" stop-color="rgb(0%, 27.474976%, 59.980774%)" offset="0.757812"/><stop stop-opacity="1" stop-color="rgb(0%, 27.523804%, 60.231018%)" offset="0.765625"/><stop stop-opacity="1" stop-color="rgb(0%, 27.572632%, 60.479736%)" offset="0.773438"/><stop stop-opacity="1" stop-color="rgb(0%, 27.62146%, 60.72998%)" offset="0.78125"/><stop stop-opacity="1" stop-color="rgb(0%, 27.671814%, 60.978699%)" offset="0.789062"/><stop stop-opacity="1" stop-color="rgb(0%, 27.720642%, 61.228943%)" offset="0.796875"/><stop stop-opacity="1" stop-color="rgb(0%, 27.76947%, 61.477661%)" offset="0.804688"/><stop stop-opacity="1" stop-color="rgb(0%, 27.818298%, 61.727905%)" offset="0.8125"/><stop stop-opacity="1" stop-color="rgb(0%, 27.867126%, 61.976624%)" offset="0.820312"/><stop stop-opacity="1" stop-color="rgb(0%, 27.915955%, 62.225342%)" offset="0.828125"/><stop stop-opacity="1" stop-color="rgb(0%, 27.964783%, 62.475586%)" offset="0.835938"/><stop stop-opacity="1" stop-color="rgb(0%, 28.013611%, 62.724304%)" offset="0.84375"/><stop stop-opacity="1" stop-color="rgb(0%, 28.063965%, 62.974548%)" offset="0.851562"/><stop stop-opacity="1" stop-color="rgb(0%, 28.112793%, 63.223267%)" offset="0.859375"/><stop stop-opacity="1" stop-color="rgb(0%, 28.161621%, 63.473511%)" offset="0.867187"/><stop stop-opacity="1" stop-color="rgb(0%, 28.210449%, 63.722229%)" offset="0.875"/><stop stop-opacity="1" stop-color="rgb(0%, 28.259277%, 63.972473%)" offset="0.882813"/><stop stop-opacity="1" stop-color="rgb(0%, 28.308105%, 64.221191%)" offset="0.890625"/><stop stop-opacity="1" stop-color="rgb(0%, 28.356934%, 64.471436%)" offset="0.898438"/><stop stop-opacity="1" stop-color="rgb(0%, 28.405762%, 64.720154%)" offset="0.90625"/><stop stop-opacity="1" stop-color="rgb(0%, 28.456116%, 64.970398%)" offset="0.914062"/><stop stop-opacity="1" stop-color="rgb(0%, 28.504944%, 65.219116%)" offset="0.921875"/><stop stop-opacity="1" stop-color="rgb(0%, 28.553772%, 65.467834%)" offset="0.929688"/><stop stop-opacity="1" stop-color="rgb(0%, 28.6026%, 65.718079%)" offset="0.9375"/><stop stop-opacity="1" stop-color="rgb(0%, 28.651428%, 65.966797%)" offset="0.945312"/><stop stop-opacity="1" stop-color="rgb(0%, 28.700256%, 66.217041%)" offset="0.953125"/><stop stop-opacity="1" stop-color="rgb(0%, 28.749084%, 66.465759%)" offset="0.960938"/><stop stop-opacity="1" stop-color="rgb(0%, 28.797913%, 66.716003%)" offset="0.96875"/><stop stop-opacity="1" stop-color="rgb(0%, 28.846741%, 66.964722%)" offset="0.976562"/><stop stop-opacity="1" stop-color="rgb(0%, 28.897095%, 67.214966%)" offset="0.984375"/><stop stop-opacity="1" stop-color="rgb(0%, 28.945923%, 67.463684%)" offset="0.992188"/><stop stop-opacity="1" stop-color="rgb(0%, 28.994751%, 67.713928%)" offset="1"/></linearGradient><clipPath id="1a44cf0b78"><rect x="0" width="493" y="0" height="605"/></clipPath><clipPath id="1d2b7084dc"><path d="M 338.863281 511.148438 L 896.023438 511.148438 L 896.023438 863.929688 L 338.863281 863.929688 Z M 338.863281 511.148438 " clip-rule="nonzero"/></clipPath><clipPath id="c747991989"><path d="M 0.863281 0.148438 L 557.660156 0.148438 L 557.660156 352.929688 L 0.863281 352.929688 Z M 0.863281 0.148438 " clip-rule="nonzero"/></clipPath><clipPath id="e3d67476de"><path d="M 374.410156 941.246094 L 557.664062 941.246094 L 184.113281 0.363281 L 0.863281 0.363281 Z M 374.410156 941.246094 " clip-rule="nonzero"/></clipPath><clipPath id="ba702d349d"><rect x="0" width="559" y="0" height="353"/></clipPath><clipPath id="0f3bb9ffd7"><path d="M 0 458 L 574 458 L 574 863.929688 L 0 863.929688 Z M 0 458 " clip-rule="nonzero"/></clipPath><clipPath id="44f365021e"><path d="M 129.300781 458.195312 L 574.421875 699.179688 L 371.996094 1073.082031 L -73.125 832.097656 Z M 129.300781 458.195312 " clip-rule="nonzero"/></clipPath><clipPath id="06483b5ae7"><path d="M 0 0.394531 L 371 0.394531 L 371 405.929688 L 0 405.929688 Z M 0 0.394531 " clip-rule="nonzero"/></clipPath><clipPath id="efcb6a71bf"><path d="M 129.300781 0.195312 L 574.421875 241.179688 L 371.996094 615.082031 L -73.125 374.097656 Z M 129.300781 0.195312 " clip-rule="nonzero"/></clipPath><clipPath id="c825ab5483"><path d="M 372.078125 615.296875 L -73.042969 374.316406 L 129.382812 0.414062 L 574.503906 241.398438 Z M 372.078125 615.296875 " clip-rule="nonzero"/></clipPath><clipPath id="56e89f15e9"><rect x="0" width="574" y="0" height="406"/></clipPath><clipPath id="e9d022f73b"><path d="M 1383 523 L 1435.835938 523 L 1435.835938 565 L 1383 565 Z M 1383 523 " clip-rule="nonzero"/></clipPath><clipPath id="c3a371cd70"><path d="M 1270.113281 598 L 1276 598 L 1276 602.472656 L 1270.113281 602.472656 Z M 1270.113281 598 " clip-rule="nonzero"/></clipPath><clipPath id="1cba49f475"><path d="M 922 732 L 1018 732 L 1018 806 L 922 806 Z M 922 732 " clip-rule="nonzero"/></clipPath><clipPath id="af4149da84"><path d="M 887.203125 713.277344 L 1026.390625 735.683594 L 1013.160156 817.863281 L 873.976562 795.457031 Z M 887.203125 713.277344 " clip-rule="nonzero"/></clipPath><clipPath id="c3ecc14765"><path d="M 887.203125 713.277344 L 1026.390625 735.683594 L 1013.160156 817.863281 L 873.976562 795.457031 Z M 887.203125 713.277344 " clip-rule="nonzero"/></clipPath><clipPath id="287f7801ae"><path d="M 921 737 L 1012 737 L 1012 789 L 921 789 Z M 921 737 " clip-rule="nonzero"/></clipPath><clipPath id="9647bffef6"><path d="M 887.203125 713.277344 L 1026.390625 735.683594 L 1013.160156 817.863281 L 873.976562 795.457031 Z M 887.203125 713.277344 " clip-rule="nonzero"/></clipPath><clipPath id="da57518135"><path d="M 887.203125 713.277344 L 1026.390625 735.683594 L 1013.160156 817.863281 L 873.976562 795.457031 Z M 887.203125 713.277344 " clip-rule="nonzero"/></clipPath><clipPath id="9d3b01e869"><path d="M 882 742 L 916 742 L 916 753 L 882 753 Z M 882 742 " clip-rule="nonzero"/></clipPath><clipPath id="bccea8b141"><path d="M 887.203125 713.277344 L 1026.390625 735.683594 L 1013.160156 817.863281 L 873.976562 795.457031 Z M 887.203125 713.277344 " clip-rule="nonzero"/></clipPath><clipPath id="73351df6ff"><path d="M 887.203125 713.277344 L 1026.390625 735.683594 L 1013.160156 817.863281 L 873.976562 795.457031 Z M 887.203125 713.277344 " clip-rule="nonzero"/></clipPath><clipPath id="520491aec2"><path d="M 890 758 L 914 758 L 914 767 L 890 767 Z M 890 758 " clip-rule="nonzero"/></clipPath><clipPath id="baa4776895"><path d="M 887.203125 713.277344 L 1026.390625 735.683594 L 1013.160156 817.863281 L 873.976562 795.457031 Z M 887.203125 713.277344 " clip-rule="nonzero"/></clipPath><clipPath id="443337ae0e"><path d="M 887.203125 713.277344 L 1026.390625 735.683594 L 1013.160156 817.863281 L 873.976562 795.457031 Z M 887.203125 713.277344 " clip-rule="nonzero"/></clipPath><clipPath id="bbd8eaad04"><path d="M 898 774 L 912 774 L 912 781 L 898 781 Z M 898 774 " clip-rule="nonzero"/></clipPath><clipPath id="1b19a64bba"><path d="M 887.203125 713.277344 L 1026.390625 735.683594 L 1013.160156 817.863281 L 873.976562 795.457031 Z M 887.203125 713.277344 " clip-rule="nonzero"/></clipPath><clipPath id="348376c096"><path d="M 887.203125 713.277344 L 1026.390625 735.683594 L 1013.160156 817.863281 L 873.976562 795.457031 Z M 887.203125 713.277344 " clip-rule="nonzero"/></clipPath><clipPath id="fa19486d98"><path d="M 1079 630 L 1188 630 L 1188 762 L 1079 762 Z M 1079 630 " clip-rule="nonzero"/></clipPath><clipPath id="927925bba0"><path d="M 1055.222656 656.277344 L 1161.820312 628.207031 L 1190.652344 737.707031 L 1084.054688 765.777344 Z M 1055.222656 656.277344 " clip-rule="nonzero"/></clipPath><clipPath id="d4c7ef9a44"><path d="M 1055.222656 656.277344 L 1161.820312 628.207031 L 1190.652344 737.707031 L 1084.054688 765.777344 Z M 1055.222656 656.277344 " clip-rule="nonzero"/></clipPath><clipPath id="2a8b8c3625"><path d="M 1107 672 L 1131 672 L 1131 734 L 1107 734 Z M 1107 672 " clip-rule="nonzero"/></clipPath><clipPath id="d9b8f7b287"><path d="M 1055.222656 656.277344 L 1161.820312 628.207031 L 1190.652344 737.707031 L 1084.054688 765.777344 Z M 1055.222656 656.277344 " clip-rule="nonzero"/></clipPath><clipPath id="43a049514b"><path d="M 1055.222656 656.277344 L 1161.820312 628.207031 L 1190.652344 737.707031 L 1084.054688 765.777344 Z M 1055.222656 656.277344 " clip-rule="nonzero"/></clipPath><clipPath id="b08c7d5fbc"><path d="M 1124 665 L 1151 665 L 1151 728 L 1124 728 Z M 1124 665 " clip-rule="nonzero"/></clipPath><clipPath id="4a94bca748"><path d="M 1055.222656 656.277344 L 1161.820312 628.207031 L 1190.652344 737.707031 L 1084.054688 765.777344 Z M 1055.222656 656.277344 " clip-rule="nonzero"/></clipPath><clipPath id="6a306220d0"><path d="M 1055.222656 656.277344 L 1161.820312 628.207031 L 1190.652344 737.707031 L 1084.054688 765.777344 Z M 1055.222656 656.277344 " clip-rule="nonzero"/></clipPath><clipPath id="ca70d987b1"><path d="M 1188.4375 704.238281 L 1351.910156 704.238281 L 1351.910156 797.222656 L 1188.4375 797.222656 Z M 1188.4375 704.238281 " clip-rule="nonzero"/></clipPath><clipPath id="91cdf05cc8"><path d="M 633 634 L 832 634 L 832 818 L 633 818 Z M 633 634 " clip-rule="nonzero"/></clipPath><clipPath id="054408b1e6"><path d="M 617.261719 650.613281 L 799.785156 619.121094 L 831.277344 801.644531 L 648.753906 833.136719 Z M 617.261719 650.613281 " clip-rule="nonzero"/></clipPath><clipPath id="9fafd8d4e7"><path d="M 617.261719 650.613281 L 799.785156 619.121094 L 831.277344 801.644531 L 648.753906 833.136719 Z M 617.261719 650.613281 " clip-rule="nonzero"/></clipPath><clipPath id="ecbd00da68"><path d="M 1203 763 L 1438 763 L 1438 863.929688 L 1203 863.929688 Z M 1203 763 " clip-rule="nonzero"/></clipPath><clipPath id="23e8a3cd01"><path d="M 1266.621094 750.792969 L 1450.316406 826.585938 L 1374.527344 1010.28125 L 1190.832031 934.488281 Z M 1266.621094 750.792969 " clip-rule="nonzero"/></clipPath><clipPath id="50f1552446"><path d="M 1266.621094 750.792969 L 1450.316406 826.585938 L 1374.527344 1010.28125 L 1190.832031 934.488281 Z M 1266.621094 750.792969 " clip-rule="nonzero"/></clipPath><clipPath id="7a0e219573"><path d="M 1000.257812 777.542969 L 1136.734375 777.542969 L 1136.734375 863.929688 L 1000.257812 863.929688 Z M 1000.257812 777.542969 " clip-rule="nonzero"/></clipPath></defs><g clip-path="url(#478539c8f2)"><g transform="matrix(1, 0, 0, 1, 67, 259)"><g clip-path="url(#1a44cf0b78)"><g clip-path="url(#c32b333f6c)"><g clip-path="url(#3b20cff89f)"><path fill="url(#5c9971a692)" d="M 0.5625 604.929688 L 0.5625 0.621094 L 492.449219 0.621094 L 492.449219 604.929688 Z M 0.5625 604.929688 " fill-rule="nonzero"/></g></g></g></g></g><g clip-path="url(#1d2b7084dc)"><g transform="matrix(1, 0, 0, 1, 338, 511)"><g clip-path="url(#ba702d349d)"><g clip-path="url(#c747991989)"><g clip-path="url(#e3d67476de)"><path fill="#efdb42" d="M 557.660156 0.363281 L 557.660156 352.929688 L 0.863281 352.929688 L 0.863281 0.363281 Z M 557.660156 0.363281 " fill-opacity="1" fill-rule="nonzero"/></g></g></g></g></g><g clip-path="url(#0f3bb9ffd7)"><g clip-path="url(#44f365021e)"><g transform="matrix(1, 0, 0, 1, 0, 458)"><g clip-path="url(#56e89f15e9)"><g clip-path="url(#06483b5ae7)"><g clip-path="url(#efcb6a71bf)"><g clip-path="url(#c825ab5483)"><path fill="#efdb42" d="M 130.558594 0.875 L 370.824219 614.617188 L -71.941406 374.910156 Z M 130.558594 0.875 " fill-opacity="1" fill-rule="nonzero"/></g></g></g></g></g></g></g><path fill="#004aad" d="M 1340.53125 582.816406 C 1340.53125 582.816406 1340.527344 582.816406 1340.527344 582.816406 C 1339.390625 583.628906 1338.351562 584.351562 1337.347656 585.03125 C 1337.339844 585.035156 1337.335938 585.035156 1337.335938 585.039062 C 1336.886719 585.339844 1336.769531 585.949219 1337.070312 586.394531 C 1337.257812 586.671875 1337.566406 586.824219 1337.878906 586.824219 C 1338.066406 586.824219 1338.257812 586.769531 1338.425781 586.65625 C 1339.445312 585.96875 1340.503906 585.234375 1341.660156 584.410156 C 1341.664062 584.40625 1341.664062 584.40625 1341.667969 584.40625 C 1342.105469 584.089844 1342.207031 583.484375 1341.894531 583.042969 C 1341.582031 582.609375 1340.972656 582.503906 1340.53125 582.816406 Z M 1340.53125 582.816406 " fill-opacity="1" fill-rule="nonzero"/><path fill="#004aad" d="M 1346.847656 578.195312 L 1343.695312 580.523438 C 1343.4375 580.714844 1343.296875 581.011719 1343.296875 581.3125 C 1343.296875 581.515625 1343.359375 581.714844 1343.488281 581.890625 C 1343.679688 582.148438 1343.972656 582.285156 1344.273438 582.285156 C 1344.476562 582.285156 1344.679688 582.226562 1344.851562 582.097656 L 1348.007812 579.765625 C 1348.265625 579.574219 1348.402344 579.28125 1348.402344 578.980469 C 1348.402344 578.777344 1348.339844 578.578125 1348.210938 578.402344 C 1347.894531 577.96875 1347.28125 577.878906 1346.847656 578.195312 Z M 1346.847656 578.195312 " fill-opacity="1" fill-rule="nonzero"/><path fill="#004aad" d="M 1334.078125 587.160156 C 1333.785156 587.339844 1333.523438 587.503906 1333.269531 587.65625 C 1332.421875 588.171875 1331.570312 588.667969 1330.742188 589.128906 C 1330.421875 589.308594 1330.242188 589.640625 1330.242188 589.980469 C 1330.242188 590.140625 1330.28125 590.304688 1330.367188 590.457031 C 1330.546875 590.777344 1330.875 590.957031 1331.21875 590.957031 C 1331.378906 590.957031 1331.542969 590.917969 1331.695312 590.835938 C 1332.542969 590.359375 1333.414062 589.851562 1334.289062 589.320312 C 1334.542969 589.164062 1334.8125 589 1335.109375 588.8125 C 1335.40625 588.625 1335.570312 588.308594 1335.570312 587.984375 C 1335.570312 587.804688 1335.523438 587.628906 1335.421875 587.464844 C 1335.136719 587.011719 1334.53125 586.871094 1334.078125 587.160156 Z M 1334.078125 587.160156 " fill-opacity="1" fill-rule="nonzero"/><path fill="#004aad" d="M 1353.214844 573.582031 C 1352.652344 573.976562 1352.195312 574.300781 1351.785156 574.59375 C 1351.246094 574.976562 1350.667969 575.394531 1350.015625 575.871094 C 1349.75 576.058594 1349.613281 576.355469 1349.613281 576.660156 C 1349.613281 576.859375 1349.671875 577.0625 1349.800781 577.234375 C 1349.988281 577.496094 1350.289062 577.636719 1350.589844 577.636719 C 1350.789062 577.636719 1350.988281 577.574219 1351.164062 577.449219 C 1351.179688 577.433594 1351.203125 577.421875 1351.222656 577.40625 C 1351.234375 577.398438 1351.246094 577.386719 1351.261719 577.378906 C 1351.265625 577.375 1351.269531 577.375 1351.273438 577.371094 C 1351.277344 577.367188 1351.28125 577.363281 1351.285156 577.363281 C 1351.332031 577.328125 1351.375 577.296875 1351.421875 577.261719 C 1351.421875 577.261719 1351.425781 577.261719 1351.425781 577.257812 C 1351.96875 576.867188 1352.457031 576.511719 1352.917969 576.183594 C 1353.328125 575.890625 1353.777344 575.574219 1354.332031 575.183594 L 1354.339844 575.179688 C 1354.609375 574.988281 1354.753906 574.6875 1354.753906 574.378906 C 1354.753906 574.183594 1354.699219 573.988281 1354.578125 573.820312 C 1354.269531 573.375 1353.65625 573.269531 1353.214844 573.582031 Z M 1353.214844 573.582031 " fill-opacity="1" fill-rule="nonzero"/><path fill="#004aad" d="M 1320.175781 593.769531 L 1320.171875 593.773438 C 1318.925781 594.160156 1317.6875 594.488281 1316.480469 594.746094 C 1316.476562 594.746094 1316.476562 594.746094 1316.472656 594.746094 C 1315.945312 594.859375 1315.609375 595.375 1315.722656 595.902344 C 1315.820312 596.363281 1316.222656 596.675781 1316.675781 596.675781 C 1316.742188 596.675781 1316.808594 596.667969 1316.878906 596.652344 C 1318.148438 596.382812 1319.445312 596.042969 1320.738281 595.636719 C 1320.746094 595.636719 1320.75 595.632812 1320.757812 595.632812 C 1321.269531 595.472656 1321.558594 594.925781 1321.398438 594.410156 C 1321.238281 593.898438 1320.691406 593.609375 1320.175781 593.769531 Z M 1320.175781 593.769531 " fill-opacity="1" fill-rule="nonzero"/><path fill="#004aad" d="M 1312.722656 595.351562 L 1312.546875 595.371094 C 1311.449219 595.484375 1310.34375 595.539062 1309.261719 595.539062 L 1308.894531 595.539062 C 1308.355469 595.539062 1307.921875 595.96875 1307.917969 596.507812 L 1307.917969 596.511719 C 1307.917969 597.046875 1308.347656 597.484375 1308.886719 597.488281 L 1309.261719 597.492188 C 1310.421875 597.492188 1311.59375 597.429688 1312.75 597.308594 L 1312.894531 597.296875 C 1313.402344 597.25 1313.785156 596.824219 1313.785156 596.324219 C 1313.785156 596.296875 1313.78125 596.265625 1313.78125 596.238281 C 1313.730469 595.703125 1313.261719 595.304688 1312.722656 595.351562 Z M 1312.722656 595.351562 " fill-opacity="1" fill-rule="nonzero"/><path fill="#004aad" d="M 1327.316406 590.914062 C 1326.144531 591.484375 1324.964844 592.007812 1323.816406 592.46875 C 1323.808594 592.472656 1323.800781 592.476562 1323.792969 592.476562 C 1323.296875 592.679688 1323.050781 593.246094 1323.253906 593.746094 C 1323.40625 594.128906 1323.773438 594.359375 1324.15625 594.359375 C 1324.28125 594.359375 1324.402344 594.335938 1324.523438 594.289062 C 1325.71875 593.808594 1326.941406 593.265625 1328.167969 592.671875 C 1328.515625 592.503906 1328.71875 592.15625 1328.71875 591.792969 C 1328.71875 591.648438 1328.6875 591.503906 1328.621094 591.367188 C 1328.386719 590.882812 1327.808594 590.679688 1327.316406 590.914062 Z M 1327.316406 590.914062 " fill-opacity="1" fill-rule="nonzero"/><path fill="#004aad" d="M 1387.464844 554.222656 C 1387.460938 554.226562 1387.457031 554.226562 1387.453125 554.230469 C 1386.28125 554.75 1385.078125 555.296875 1383.878906 555.859375 C 1383.875 555.859375 1383.875 555.859375 1383.875 555.859375 C 1383.386719 556.085938 1383.175781 556.667969 1383.40625 557.15625 C 1383.570312 557.511719 1383.921875 557.71875 1384.289062 557.71875 C 1384.429688 557.71875 1384.566406 557.6875 1384.699219 557.625 C 1385.894531 557.070312 1387.089844 556.527344 1388.253906 556.007812 C 1388.746094 555.789062 1388.96875 555.214844 1388.75 554.722656 C 1388.535156 554.226562 1387.957031 554.003906 1387.464844 554.222656 Z M 1387.464844 554.222656 " fill-opacity="1" fill-rule="nonzero"/><path fill="#004aad" d="M 1380.324219 557.558594 C 1379.128906 558.144531 1377.945312 558.742188 1376.804688 559.328125 C 1376.46875 559.503906 1376.277344 559.84375 1376.277344 560.199219 C 1376.277344 560.347656 1376.3125 560.503906 1376.386719 560.644531 C 1376.558594 560.980469 1376.898438 561.171875 1377.253906 561.171875 C 1377.40625 561.171875 1377.554688 561.136719 1377.699219 561.0625 C 1378.828125 560.480469 1380 559.894531 1381.183594 559.3125 L 1381.1875 559.308594 C 1381.671875 559.070312 1381.871094 558.488281 1381.632812 558.003906 C 1381.394531 557.519531 1380.8125 557.320312 1380.324219 557.558594 Z M 1380.324219 557.558594 " fill-opacity="1" fill-rule="nonzero"/><g clip-path="url(#e9d022f73b)"><path fill="#004aad" d="M 1436.015625 523.65625 C 1435.78125 523.328125 1435.363281 523.179688 1434.972656 523.28125 C 1417.890625 527.863281 1400.230469 532.597656 1383.863281 540.207031 C 1383.550781 540.351562 1383.339844 540.648438 1383.304688 540.992188 C 1383.269531 541.335938 1383.417969 541.671875 1383.691406 541.875 C 1387.976562 545.058594 1389.90625 546.523438 1393.589844 549.902344 C 1393.210938 554.546875 1393.082031 559.261719 1393.203125 563.917969 C 1393.214844 564.308594 1393.457031 564.65625 1393.820312 564.800781 C 1393.9375 564.847656 1394.058594 564.867188 1394.179688 564.867188 C 1394.4375 564.867188 1394.6875 564.769531 1394.871094 564.578125 L 1402.226562 557.148438 C 1404.765625 559.648438 1406.90625 562.175781 1408.410156 564.078125 C 1408.59375 564.308594 1408.875 564.445312 1409.171875 564.445312 C 1409.1875 564.445312 1409.199219 564.445312 1409.214844 564.445312 C 1409.527344 564.433594 1409.816406 564.269531 1409.988281 564.011719 L 1436.035156 524.761719 C 1436.261719 524.425781 1436.253906 523.984375 1436.015625 523.65625 Z M 1394.703125 548.277344 C 1391.492188 545.34375 1389.488281 543.765625 1386.175781 541.292969 C 1399.472656 535.28125 1413.636719 531.097656 1427.613281 527.289062 C 1416.253906 533.621094 1405.210938 540.65625 1394.703125 548.277344 Z M 1395.117188 559.980469 C 1395.128906 556.675781 1395.265625 553.359375 1395.53125 550.078125 C 1404.566406 543.515625 1413.996094 537.382812 1423.6875 531.761719 C 1415.226562 538.324219 1407.046875 545.300781 1399.277344 552.609375 C 1399.117188 552.761719 1399.035156 552.960938 1399 553.160156 C 1399 553.160156 1399 553.160156 1399 553.164062 C 1398.449219 554.148438 1397.890625 555.105469 1397.339844 556.058594 C 1396.601562 557.332031 1395.847656 558.636719 1395.117188 559.980469 Z M 1398.238281 558.40625 C 1398.5 557.949219 1398.761719 557.5 1399.027344 557.039062 C 1399.386719 556.421875 1399.746094 555.789062 1400.105469 555.164062 C 1400.34375 555.375 1400.578125 555.585938 1400.8125 555.800781 Z M 1409.101562 561.820312 C 1407.128906 559.40625 1404.371094 556.320312 1401.183594 553.511719 C 1410.660156 544.628906 1420.734375 536.242188 1431.199219 528.523438 Z M 1409.101562 561.820312 " fill-opacity="1" fill-rule="nonzero"/></g><path fill="#004aad" d="M 1359.757812 569.183594 C 1358.640625 569.90625 1357.535156 570.632812 1356.472656 571.347656 C 1356.46875 571.347656 1356.464844 571.351562 1356.464844 571.351562 C 1356.464844 571.351562 1356.464844 571.351562 1356.460938 571.351562 C 1356.015625 571.652344 1355.898438 572.257812 1356.195312 572.707031 C 1356.386719 572.984375 1356.691406 573.136719 1357.007812 573.136719 C 1357.195312 573.136719 1357.382812 573.082031 1357.550781 572.96875 C 1358.609375 572.261719 1359.707031 571.539062 1360.8125 570.824219 C 1361.101562 570.636719 1361.257812 570.320312 1361.257812 570.003906 C 1361.257812 569.820312 1361.210938 569.636719 1361.101562 569.472656 C 1360.8125 569.023438 1360.207031 568.890625 1359.757812 569.183594 Z M 1359.757812 569.183594 " fill-opacity="1" fill-rule="nonzero"/><path fill="#004aad" d="M 1366.460938 565.042969 C 1365.324219 565.71875 1364.191406 566.402344 1363.089844 567.082031 C 1362.789062 567.265625 1362.625 567.589844 1362.625 567.917969 C 1362.625 568.089844 1362.675781 568.269531 1362.773438 568.425781 C 1362.957031 568.726562 1363.277344 568.890625 1363.605469 568.890625 C 1363.777344 568.890625 1363.957031 568.839844 1364.117188 568.742188 C 1365.207031 568.070312 1366.332031 567.390625 1367.457031 566.726562 C 1367.765625 566.542969 1367.9375 566.21875 1367.9375 565.882812 C 1367.9375 565.714844 1367.890625 565.542969 1367.800781 565.390625 C 1367.523438 564.925781 1366.929688 564.769531 1366.460938 565.042969 Z M 1366.460938 565.042969 " fill-opacity="1" fill-rule="nonzero"/><path fill="#004aad" d="M 1373.320312 561.167969 C 1372.152344 561.800781 1370.992188 562.441406 1369.875 563.074219 C 1369.554688 563.253906 1369.378906 563.582031 1369.378906 563.921875 C 1369.378906 564.085938 1369.417969 564.25 1369.503906 564.40625 C 1369.683594 564.722656 1370.011719 564.898438 1370.355469 564.898438 C 1370.515625 564.898438 1370.683594 564.859375 1370.832031 564.773438 C 1371.941406 564.148438 1373.089844 563.515625 1374.25 562.886719 C 1374.574219 562.710938 1374.761719 562.375 1374.761719 562.027344 C 1374.761719 561.871094 1374.722656 561.710938 1374.644531 561.5625 C 1374.390625 561.089844 1373.796875 560.910156 1373.320312 561.167969 Z M 1373.320312 561.167969 " fill-opacity="1" fill-rule="nonzero"/><path fill="#004aad" d="M 1301.339844 576.175781 C 1301.792969 574.789062 1302.039062 573.402344 1302.070312 572.046875 L 1302.070312 572.023438 C 1302.070312 571.496094 1301.648438 571.0625 1301.117188 571.050781 C 1301.109375 571.050781 1301.101562 571.050781 1301.09375 571.050781 C 1300.566406 571.050781 1300.128906 571.472656 1300.117188 572.003906 C 1300.09375 573.164062 1299.878906 574.363281 1299.488281 575.566406 C 1299.453125 575.667969 1299.4375 575.769531 1299.4375 575.871094 C 1299.4375 576.28125 1299.699219 576.664062 1300.113281 576.800781 C 1300.210938 576.832031 1300.3125 576.847656 1300.414062 576.847656 C 1300.824219 576.847656 1301.203125 576.585938 1301.339844 576.175781 Z M 1301.339844 576.175781 " fill-opacity="1" fill-rule="nonzero"/><path fill="#004aad" d="M 1285.8125 579.757812 C 1285.675781 579.234375 1285.136719 578.925781 1284.621094 579.066406 C 1284.183594 579.179688 1283.894531 579.574219 1283.894531 580.007812 C 1283.894531 580.089844 1283.90625 580.175781 1283.929688 580.257812 C 1283.929688 580.265625 1283.933594 580.269531 1283.933594 580.273438 C 1284.28125 581.574219 1284.761719 582.859375 1285.355469 584.089844 C 1285.359375 584.09375 1285.359375 584.097656 1285.363281 584.101562 C 1285.535156 584.449219 1285.878906 584.648438 1286.242188 584.648438 C 1286.386719 584.648438 1286.53125 584.617188 1286.667969 584.550781 C 1287.15625 584.316406 1287.355469 583.734375 1287.125 583.25 C 1286.574219 582.121094 1286.140625 580.949219 1285.820312 579.769531 C 1285.816406 579.765625 1285.816406 579.761719 1285.8125 579.757812 Z M 1285.8125 579.757812 " fill-opacity="1" fill-rule="nonzero"/><path fill="#004aad" d="M 1285.222656 569.386719 C 1285.355469 569.453125 1285.5 569.480469 1285.640625 569.480469 C 1286.007812 569.480469 1286.355469 569.273438 1286.523438 568.921875 C 1287.050781 567.808594 1287.746094 566.785156 1288.539062 565.96875 C 1288.542969 565.964844 1288.542969 565.964844 1288.546875 565.960938 C 1288.921875 565.574219 1288.914062 564.957031 1288.527344 564.582031 C 1288.140625 564.207031 1287.523438 564.214844 1287.144531 564.601562 C 1287.140625 564.605469 1287.136719 564.609375 1287.132812 564.613281 C 1286.199219 565.578125 1285.378906 566.773438 1284.761719 568.078125 C 1284.761719 568.082031 1284.761719 568.082031 1284.757812 568.085938 C 1284.695312 568.21875 1284.664062 568.363281 1284.664062 568.503906 C 1284.664062 568.867188 1284.871094 569.21875 1285.222656 569.386719 Z M 1285.222656 569.386719 " fill-opacity="1" fill-rule="nonzero"/><g clip-path="url(#c3a371cd70)"><path fill="#004aad" d="M 1274.28125 598.378906 C 1274.277344 598.382812 1274.273438 598.382812 1274.269531 598.386719 C 1273.140625 599.007812 1271.988281 599.605469 1270.847656 600.167969 C 1270.84375 600.167969 1270.84375 600.171875 1270.839844 600.171875 C 1270.359375 600.410156 1270.160156 600.996094 1270.398438 601.476562 C 1270.566406 601.824219 1270.914062 602.023438 1271.273438 602.023438 C 1271.417969 602.023438 1271.566406 601.988281 1271.707031 601.921875 C 1272.867188 601.347656 1274.050781 600.730469 1275.21875 600.089844 C 1275.691406 599.832031 1275.867188 599.238281 1275.609375 598.765625 C 1275.347656 598.292969 1274.757812 598.121094 1274.28125 598.378906 Z M 1274.28125 598.378906 " fill-opacity="1" fill-rule="nonzero"/></g><path fill="#004aad" d="M 1291.089844 564.125 C 1291.195312 564.125 1291.304688 564.109375 1291.410156 564.074219 C 1291.894531 563.90625 1292.394531 563.804688 1292.902344 563.769531 C 1293.457031 563.730469 1294.085938 563.789062 1294.691406 563.949219 C 1294.691406 563.949219 1294.695312 563.953125 1294.695312 563.953125 C 1294.695312 563.953125 1294.699219 563.953125 1294.699219 563.953125 C 1295.222656 564.09375 1295.75 563.785156 1295.890625 563.261719 C 1296.03125 562.742188 1295.722656 562.210938 1295.203125 562.070312 C 1294.40625 561.851562 1293.578125 561.769531 1292.773438 561.824219 C 1292.09375 561.867188 1291.421875 562.003906 1290.769531 562.230469 C 1290.367188 562.371094 1290.113281 562.746094 1290.113281 563.152344 C 1290.113281 563.257812 1290.132812 563.367188 1290.167969 563.472656 C 1290.304688 563.871094 1290.683594 564.125 1291.089844 564.125 Z M 1291.089844 564.125 " fill-opacity="1" fill-rule="nonzero"/><path fill="#004aad" d="M 1297.644531 565.652344 C 1298.5 566.460938 1299.160156 567.453125 1299.558594 568.519531 C 1299.707031 568.910156 1300.078125 569.152344 1300.472656 569.152344 C 1300.585938 569.152344 1300.703125 569.132812 1300.8125 569.089844 C 1301.207031 568.945312 1301.449219 568.570312 1301.449219 568.175781 C 1301.449219 568.0625 1301.425781 567.949219 1301.386719 567.835938 C 1300.882812 566.492188 1300.054688 565.246094 1298.988281 564.234375 C 1298.597656 563.863281 1297.976562 563.878906 1297.605469 564.269531 C 1297.234375 564.660156 1297.253906 565.277344 1297.644531 565.652344 Z M 1297.644531 565.652344 " fill-opacity="1" fill-rule="nonzero"/><path fill="#004aad" d="M 1280.914062 594.355469 C 1279.828125 595.082031 1278.726562 595.78125 1277.644531 596.441406 C 1277.339844 596.621094 1277.171875 596.945312 1277.171875 597.273438 C 1277.171875 597.449219 1277.21875 597.625 1277.316406 597.78125 C 1277.5 598.085938 1277.820312 598.253906 1278.148438 598.253906 C 1278.324219 598.253906 1278.496094 598.207031 1278.65625 598.109375 C 1279.765625 597.4375 1280.890625 596.722656 1282 595.984375 C 1282.28125 595.796875 1282.433594 595.484375 1282.433594 595.171875 C 1282.433594 594.984375 1282.378906 594.796875 1282.269531 594.628906 C 1281.96875 594.179688 1281.359375 594.058594 1280.914062 594.355469 Z M 1280.914062 594.355469 " fill-opacity="1" fill-rule="nonzero"/><path fill="#004aad" d="M 1284.304688 577.121094 C 1284.84375 577.089844 1285.253906 576.628906 1285.222656 576.09375 C 1285.207031 575.792969 1285.199219 575.484375 1285.199219 575.171875 L 1285.199219 575.164062 C 1285.199219 574.238281 1285.28125 573.3125 1285.4375 572.414062 C 1285.4375 572.414062 1285.4375 572.410156 1285.4375 572.410156 C 1285.53125 571.878906 1285.179688 571.371094 1284.648438 571.277344 C 1284.113281 571.1875 1283.613281 571.539062 1283.515625 572.070312 C 1283.339844 573.074219 1283.25 574.117188 1283.25 575.164062 L 1283.25 575.175781 C 1283.25 575.519531 1283.257812 575.863281 1283.277344 576.195312 L 1283.277344 576.203125 C 1283.308594 576.722656 1283.738281 577.125 1284.25 577.125 C 1284.269531 577.121094 1284.285156 577.121094 1284.304688 577.121094 Z M 1284.304688 577.121094 " fill-opacity="1" fill-rule="nonzero"/><path fill="#004aad" d="M 1297.835938 593.269531 C 1296.667969 592.761719 1295.550781 592.167969 1294.511719 591.503906 C 1294.054688 591.214844 1293.453125 591.347656 1293.164062 591.800781 C 1293.058594 591.964844 1293.011719 592.144531 1293.011719 592.324219 C 1293.007812 592.648438 1293.167969 592.964844 1293.460938 593.148438 C 1294.589844 593.867188 1295.796875 594.511719 1297.058594 595.058594 C 1297.1875 595.113281 1297.316406 595.140625 1297.445312 595.140625 C 1297.824219 595.140625 1298.183594 594.917969 1298.339844 594.550781 C 1298.398438 594.425781 1298.421875 594.292969 1298.421875 594.164062 C 1298.421875 593.785156 1298.203125 593.425781 1297.835938 593.269531 Z M 1297.835938 593.269531 " fill-opacity="1" fill-rule="nonzero"/><path fill="#004aad" d="M 1299.253906 578.578125 C 1298.792969 578.292969 1298.191406 578.433594 1297.910156 578.894531 C 1297.292969 579.886719 1296.554688 580.871094 1295.65625 581.90625 C 1295.496094 582.089844 1295.417969 582.316406 1295.417969 582.546875 C 1295.417969 582.820312 1295.53125 583.089844 1295.75 583.28125 C 1295.9375 583.441406 1296.164062 583.523438 1296.390625 583.523438 C 1296.664062 583.523438 1296.933594 583.40625 1297.128906 583.1875 C 1298.097656 582.074219 1298.894531 581.007812 1299.566406 579.921875 C 1299.664062 579.761719 1299.714844 579.585938 1299.714844 579.410156 C 1299.714844 579.082031 1299.550781 578.765625 1299.253906 578.578125 Z M 1299.253906 578.578125 " fill-opacity="1" fill-rule="nonzero"/><path fill="#004aad" d="M 1291.195312 588.902344 C 1291.277344 588.863281 1291.355469 588.8125 1291.425781 588.75 C 1292.253906 588.023438 1293.089844 587.265625 1293.902344 586.5 L 1294.351562 586.070312 C 1294.550781 585.878906 1294.648438 585.625 1294.648438 585.367188 C 1294.648438 585.125 1294.558594 584.878906 1294.375 584.691406 C 1294.003906 584.304688 1293.386719 584.292969 1292.996094 584.664062 L 1292.5625 585.078125 C 1292.5625 585.078125 1292.558594 585.078125 1292.558594 585.082031 C 1291.769531 585.824219 1290.964844 586.558594 1290.160156 587.265625 C 1290.152344 587.269531 1290.144531 587.277344 1290.140625 587.285156 C 1290.050781 587.363281 1289.976562 587.453125 1289.925781 587.550781 C 1289.621094 587.195312 1289.328125 586.828125 1289.050781 586.449219 C 1288.730469 586.015625 1288.121094 585.925781 1287.683594 586.246094 C 1287.425781 586.4375 1287.289062 586.730469 1287.289062 587.03125 C 1287.289062 587.230469 1287.351562 587.433594 1287.480469 587.609375 C 1288.300781 588.71875 1289.222656 589.746094 1290.214844 590.664062 C 1290.402344 590.835938 1290.640625 590.921875 1290.878906 590.921875 C 1291.140625 590.921875 1291.402344 590.816406 1291.59375 590.605469 C 1291.769531 590.417969 1291.851562 590.183594 1291.851562 589.945312 C 1291.851562 589.683594 1291.746094 589.417969 1291.539062 589.226562 C 1291.421875 589.121094 1291.308594 589.011719 1291.195312 588.902344 Z M 1291.195312 588.902344 " fill-opacity="1" fill-rule="nonzero"/><path fill="#004aad" d="M 1287.167969 589.773438 C 1286.160156 590.582031 1285.121094 591.375 1284.089844 592.132812 C 1283.832031 592.324219 1283.691406 592.621094 1283.691406 592.921875 C 1283.691406 593.121094 1283.753906 593.324219 1283.878906 593.5 C 1284.074219 593.757812 1284.367188 593.894531 1284.667969 593.894531 C 1284.871094 593.894531 1285.070312 593.835938 1285.246094 593.707031 C 1286.300781 592.933594 1287.359375 592.121094 1288.390625 591.296875 C 1288.632812 591.105469 1288.757812 590.820312 1288.757812 590.535156 C 1288.757812 590.320312 1288.6875 590.105469 1288.542969 589.925781 C 1288.207031 589.503906 1287.589844 589.433594 1287.167969 589.773438 Z M 1287.167969 589.773438 " fill-opacity="1" fill-rule="nonzero"/><path fill="#004aad" d="M 1305.113281 595.265625 C 1303.851562 595.09375 1302.601562 594.84375 1301.398438 594.515625 C 1300.882812 594.375 1300.34375 594.679688 1300.203125 595.203125 C 1300.179688 595.285156 1300.167969 595.371094 1300.167969 595.457031 C 1300.164062 595.886719 1300.453125 596.28125 1300.886719 596.398438 C 1302.171875 596.75 1303.503906 597.019531 1304.851562 597.199219 C 1304.898438 597.207031 1304.941406 597.207031 1304.984375 597.207031 C 1305.464844 597.207031 1305.882812 596.851562 1305.949219 596.363281 C 1305.953125 596.320312 1305.957031 596.273438 1305.957031 596.230469 C 1305.960938 595.75 1305.605469 595.332031 1305.113281 595.265625 Z M 1305.113281 595.265625 " fill-opacity="1" fill-rule="nonzero"/><g clip-path="url(#1cba49f475)"><g clip-path="url(#af4149da84)"><g clip-path="url(#c3ecc14765)"><path fill="#004aad" d="M 936.363281 805.855469 C 934.75 805.597656 933.238281 804.953125 931.914062 803.921875 C 929.792969 802.308594 928.425781 799.964844 928.070312 797.324219 L 922.089844 752.867188 C 921.734375 750.230469 922.425781 747.617188 924.058594 745.5 C 925.671875 743.378906 928.015625 742.011719 930.65625 741.65625 L 1000.347656 732.289062 C 1002.984375 731.933594 1005.597656 732.628906 1007.714844 734.257812 C 1009.835938 735.871094 1011.203125 738.214844 1011.558594 740.855469 L 1017.539062 785.3125 C 1017.894531 787.949219 1017.203125 790.5625 1015.570312 792.679688 C 1013.957031 794.800781 1011.613281 796.167969 1008.976562 796.523438 L 939.261719 805.90625 C 938.277344 806.035156 937.296875 806.023438 936.359375 805.875 Z M 1002.394531 737.632812 C 1001.953125 737.5625 1001.515625 737.566406 1001.070312 737.621094 L 931.339844 747 C 928.832031 747.339844 927.058594 749.652344 927.402344 752.160156 L 933.378906 796.617188 C 933.550781 797.828125 934.175781 798.910156 935.144531 799.644531 C 936.136719 800.386719 937.335938 800.707031 938.542969 800.554688 L 1008.257812 791.175781 C 1010.761719 790.832031 1012.535156 788.519531 1012.195312 786.011719 L 1006.214844 741.554688 C 1006.046875 740.347656 1005.421875 739.265625 1004.449219 738.527344 C 1003.832031 738.066406 1003.136719 737.753906 1002.394531 737.632812 Z M 1002.394531 737.632812 " fill-opacity="1" fill-rule="nonzero"/></g></g></g><g clip-path="url(#287f7801ae)"><g clip-path="url(#9647bffef6)"><g clip-path="url(#da57518135)"><path fill="#004aad" d="M 970.042969 788.496094 C 968.734375 788.285156 967.492188 787.757812 966.425781 786.929688 L 923.011719 753.816406 C 921.828125 752.917969 921.609375 751.230469 922.507812 750.046875 C 923.40625 748.867188 925.097656 748.648438 926.277344 749.546875 L 969.691406 782.660156 C 970.277344 783.097656 970.992188 783.285156 971.710938 783.203125 C 972.4375 783.101562 973.078125 782.734375 973.535156 782.152344 L 1006.648438 738.738281 C 1007.546875 737.554688 1009.238281 737.320312 1010.417969 738.234375 C 1011.601562 739.132812 1011.820312 740.824219 1010.921875 742.003906 L 977.804688 785.417969 C 976.492188 787.152344 974.585938 788.261719 972.433594 788.550781 C 971.632812 788.660156 970.816406 788.65625 970.039062 788.53125 Z M 970.042969 788.496094 " fill-opacity="1" fill-rule="nonzero"/></g></g></g><g clip-path="url(#9d3b01e869)"><g clip-path="url(#bccea8b141)"><g clip-path="url(#73351df6ff)"><path fill="#004aad" d="M 912.828125 752.285156 L 884.492188 747.726562 C 883.023438 747.488281 882.027344 746.109375 882.265625 744.640625 C 882.5 743.171875 883.878906 742.175781 885.347656 742.414062 L 913.683594 746.972656 C 915.152344 747.210938 916.148438 748.585938 915.914062 750.058594 C 915.675781 751.527344 914.296875 752.523438 912.828125 752.285156 Z M 912.828125 752.285156 " fill-opacity="1" fill-rule="nonzero"/></g></g></g><g clip-path="url(#520491aec2)"><g clip-path="url(#baa4776895)"><g clip-path="url(#443337ae0e)"><path fill="#004aad" d="M 910.546875 766.453125 L 892.839844 763.601562 C 891.367188 763.367188 890.371094 761.988281 890.609375 760.519531 C 890.847656 759.050781 892.222656 758.054688 893.695312 758.289062 L 911.402344 761.140625 C 912.871094 761.378906 913.867188 762.753906 913.632812 764.226562 C 913.394531 765.695312 912.015625 766.691406 910.546875 766.453125 Z M 910.546875 766.453125 " fill-opacity="1" fill-rule="nonzero"/></g></g></g><g clip-path="url(#bbd8eaad04)"><g clip-path="url(#1b19a64bba)"><g clip-path="url(#348376c096)"><path fill="#004aad" d="M 908.265625 780.621094 L 901.183594 779.480469 C 899.714844 779.246094 898.71875 777.867188 898.953125 776.398438 C 899.191406 774.925781 900.570312 773.929688 902.039062 774.167969 L 909.121094 775.308594 C 910.59375 775.546875 911.585938 776.921875 911.351562 778.390625 C 911.113281 779.863281 909.738281 780.859375 908.265625 780.621094 Z M 908.265625 780.621094 " fill-opacity="1" fill-rule="nonzero"/></g></g></g><g clip-path="url(#fa19486d98)"><g clip-path="url(#927925bba0)"><g clip-path="url(#d4c7ef9a44)"><path fill="#004aad" d="M 1187.597656 725.222656 C 1187.59375 725.125 1187.582031 725.03125 1187.558594 724.933594 L 1173.097656 670.023438 C 1173.066406 669.898438 1173.015625 669.777344 1172.945312 669.667969 L 1157.789062 645.050781 C 1159.65625 643.527344 1160.410156 640.320312 1159.511719 636.90625 C 1158.398438 632.671875 1155.226562 629.964844 1152.289062 630.738281 L 1089.34375 647.308594 C 1086.410156 648.082031 1084.980469 652.003906 1086.097656 656.238281 C 1087.03125 659.78125 1089.40625 662.25 1091.878906 662.507812 L 1090.816406 691.292969 C 1090.8125 691.421875 1090.828125 691.554688 1090.859375 691.679688 L 1104.179688 742.273438 C 1103.894531 742.320312 1103.605469 742.363281 1103.304688 742.417969 C 1097.035156 743.511719 1080.613281 745.984375 1080.445312 746.007812 C 1080.074219 746.0625 1079.742188 746.277344 1079.535156 746.589844 C 1079.328125 746.90625 1079.265625 747.292969 1079.359375 747.65625 L 1082.714844 760.390625 C 1082.898438 761.097656 1083.625 761.523438 1084.335938 761.335938 C 1088.277344 760.296875 1095.3125 759.800781 1101.519531 759.359375 C 1106.625 759 1111.035156 758.6875 1113.164062 758.125 C 1117.648438 756.945312 1135.332031 748.3125 1137.109375 747.4375 L 1146.113281 745.070312 C 1148.886719 744.335938 1150.554688 741.484375 1149.820312 738.707031 C 1149.605469 737.878906 1149.199219 737.148438 1148.660156 736.546875 L 1169.605469 731.03125 L 1186.613281 726.550781 C 1186.71875 726.523438 1186.820312 726.480469 1186.910156 726.429688 C 1186.9375 726.414062 1186.960938 726.398438 1186.984375 726.382812 C 1187.054688 726.339844 1187.117188 726.289062 1187.175781 726.234375 C 1187.195312 726.214844 1187.21875 726.199219 1187.238281 726.175781 C 1187.308594 726.101562 1187.375 726.019531 1187.425781 725.929688 C 1187.433594 725.917969 1187.433594 725.90625 1187.441406 725.894531 C 1187.484375 725.808594 1187.519531 725.722656 1187.546875 725.632812 C 1187.550781 725.617188 1187.558594 725.605469 1187.5625 725.59375 C 1187.566406 725.578125 1187.5625 725.5625 1187.566406 725.546875 C 1187.585938 725.460938 1187.597656 725.375 1187.597656 725.285156 C 1187.597656 725.265625 1187.597656 725.242188 1187.597656 725.222656 Z M 1183.828125 721.179688 L 1175.414062 713.355469 L 1164.59375 672.265625 C 1164.410156 671.554688 1163.683594 671.132812 1162.972656 671.320312 C 1162.265625 671.503906 1161.84375 672.230469 1162.03125 672.941406 L 1172.851562 714.03125 L 1169.382812 724.984375 L 1156.140625 674.695312 L 1157.089844 648.972656 L 1170.585938 670.890625 Z M 1152.964844 633.300781 C 1154.226562 632.96875 1156.175781 634.644531 1156.949219 637.582031 C 1157.722656 640.519531 1156.851562 642.9375 1155.589844 643.269531 C 1154.324219 643.601562 1152.378906 641.925781 1151.605469 638.988281 C 1150.832031 636.050781 1151.699219 633.632812 1152.964844 633.300781 Z M 1090.019531 649.875 L 1149 634.34375 C 1148.550781 635.875 1148.53125 637.738281 1149.039062 639.664062 C 1149.546875 641.589844 1150.480469 643.203125 1151.625 644.3125 L 1092.921875 659.769531 L 1092.644531 659.84375 C 1091.382812 660.175781 1089.433594 658.5 1088.660156 655.5625 C 1087.886719 652.625 1088.757812 650.207031 1090.019531 649.875 Z M 1093.476562 691.195312 L 1094.550781 662.085938 L 1154.535156 646.289062 L 1153.484375 674.792969 C 1153.480469 674.804688 1153.488281 674.820312 1153.488281 674.832031 C 1153.488281 674.945312 1153.496094 675.0625 1153.527344 675.179688 L 1167.644531 728.804688 L 1144.773438 734.828125 C 1144.332031 734.828125 1143.890625 734.886719 1143.460938 735 L 1125.257812 739.792969 C 1126.226562 737.847656 1125.910156 735.421875 1124.296875 733.796875 C 1123.316406 732.808594 1122.011719 732.261719 1120.621094 732.253906 C 1119.230469 732.25 1117.921875 732.78125 1116.933594 733.761719 L 1109.019531 741.609375 C 1108.3125 741.683594 1107.578125 741.773438 1106.820312 741.878906 L 1093.472656 691.195312 Z M 1145.433594 742.503906 L 1136.308594 744.90625 C 1136.222656 744.929688 1136.140625 744.960938 1136.058594 745 C 1135.867188 745.09375 1116.855469 754.410156 1112.484375 755.5625 C 1110.597656 756.058594 1106.097656 756.378906 1101.332031 756.714844 C 1095.617188 757.117188 1089.21875 757.570312 1084.949219 758.46875 L 1082.300781 748.410156 C 1086.492188 747.777344 1098.570312 745.9375 1103.761719 745.03125 C 1104.558594 744.890625 1105.304688 744.777344 1106.03125 744.667969 C 1107.339844 744.472656 1108.59375 744.316406 1109.757812 744.195312 C 1110.058594 744.167969 1110.34375 744.03125 1110.558594 743.820312 L 1118.800781 735.644531 C 1119.285156 735.164062 1119.925781 734.902344 1120.609375 734.90625 C 1121.292969 734.910156 1121.933594 735.175781 1122.414062 735.660156 C 1123.40625 736.660156 1123.398438 738.28125 1122.398438 739.273438 L 1120.402344 741.253906 C 1119.976562 741.675781 1119.886719 742.332031 1120.183594 742.855469 C 1120.480469 743.375 1121.09375 743.632812 1121.671875 743.476562 L 1144.132812 737.5625 C 1144.378906 737.5 1144.628906 737.472656 1144.882812 737.480469 C 1146.015625 737.523438 1146.96875 738.289062 1147.253906 739.382812 C 1147.613281 740.746094 1146.796875 742.144531 1145.433594 742.503906 Z M 1171.257812 727.851562 L 1174.863281 716.464844 L 1183.609375 724.601562 Z M 1171.257812 727.851562 " fill-opacity="1" fill-rule="nonzero"/></g></g></g><g clip-path="url(#2a8b8c3625)"><g clip-path="url(#d9b8f7b287)"><g clip-path="url(#43a049514b)"><path fill="#004aad" d="M 1115.203125 693.460938 L 1123.320312 728.664062 C 1124.09375 731.609375 1125.929688 733.414062 1127.679688 732.953125 L 1128.878906 732.636719 C 1130.628906 732.175781 1131.339844 729.703125 1130.550781 726.71875 L 1120.328125 692.246094 C 1123.332031 690.460938 1124.476562 687.058594 1123.382812 682.914062 C 1121.890625 677.246094 1117.011719 671.75 1112.71875 672.882812 C 1108.425781 674.011719 1106.886719 681.199219 1108.378906 686.867188 C 1109.433594 690.867188 1111.886719 693.214844 1115.203125 693.460938 Z M 1128.050781 730.113281 L 1127.15625 730.347656 C 1126.894531 730.164062 1126.261719 729.425781 1125.894531 728.03125 L 1117.933594 693.5 L 1128 727.433594 C 1128.375 728.863281 1128.191406 729.824219 1128.050781 730.113281 Z M 1113.394531 675.449219 C 1115.75 674.828125 1119.632812 679.089844 1120.816406 683.589844 C 1121.699219 686.941406 1120.808594 689.269531 1118.234375 690.332031 C 1117.746094 690.53125 1117.4375 690.992188 1117.414062 691.492188 C 1117.171875 691.054688 1116.691406 690.785156 1116.171875 690.820312 C 1113.59375 690.988281 1111.785156 689.386719 1110.945312 686.191406 C 1109.757812 681.691406 1111.042969 676.066406 1113.394531 675.449219 Z M 1113.394531 675.449219 " fill-opacity="1" fill-rule="nonzero"/></g></g></g><g clip-path="url(#b08c7d5fbc)"><g clip-path="url(#4a94bca748)"><g clip-path="url(#6a306220d0)"><path fill="#004aad" d="M 1135.121094 688.460938 L 1143.1875 723.433594 C 1143.960938 726.378906 1145.796875 728.183594 1147.546875 727.722656 L 1148.746094 727.40625 C 1150.496094 726.945312 1151.207031 724.472656 1150.417969 721.488281 L 1140.222656 687.105469 C 1143.097656 685.507812 1144.628906 682.101562 1143.765625 678.824219 L 1140.628906 666.90625 C 1140.441406 666.199219 1139.714844 665.773438 1139.007812 665.960938 C 1138.300781 666.148438 1137.875 666.871094 1138.0625 667.582031 L 1140.878906 678.277344 L 1138.894531 678.800781 L 1136.078125 668.101562 C 1135.890625 667.394531 1135.167969 666.972656 1134.457031 667.160156 C 1133.75 667.34375 1133.328125 668.070312 1133.511719 668.777344 L 1136.328125 679.472656 L 1134.519531 679.953125 L 1131.703125 669.253906 C 1131.515625 668.546875 1130.789062 668.125 1130.082031 668.3125 C 1129.375 668.496094 1128.949219 669.222656 1129.136719 669.929688 L 1131.953125 680.625 L 1130.199219 681.089844 L 1127.382812 670.394531 C 1127.195312 669.683594 1126.46875 669.261719 1125.761719 669.449219 C 1125.054688 669.632812 1124.632812 670.359375 1124.816406 671.066406 L 1127.972656 683.046875 C 1128.832031 686.324219 1131.839844 688.511719 1135.121094 688.460938 Z M 1147.917969 724.878906 L 1147.023438 725.117188 C 1146.761719 724.933594 1146.128906 724.191406 1145.761719 722.796875 L 1137.800781 688.269531 L 1147.863281 722.203125 C 1148.242188 723.632812 1148.058594 724.59375 1147.917969 724.878906 Z M 1138.191406 685.121094 C 1138.1875 685.125 1138.179688 685.128906 1138.175781 685.128906 C 1138.171875 685.132812 1138.164062 685.132812 1138.160156 685.132812 C 1138.0625 685.167969 1137.960938 685.203125 1137.863281 685.230469 L 1136.191406 685.667969 C 1136.125 685.6875 1136.058594 685.699219 1135.988281 685.710938 L 1135.898438 685.730469 C 1133.960938 686.109375 1132.046875 685.210938 1131.0625 683.605469 L 1141.347656 680.894531 C 1141.261719 682.769531 1140.046875 684.488281 1138.191406 685.121094 Z M 1138.191406 685.121094 " fill-opacity="1" fill-rule="nonzero"/></g></g></g><g clip-path="url(#ca70d987b1)"><path fill="#004aad" d="M 1191.550781 797.070312 C 1199.976562 795.257812 1208.1875 791.785156 1215.332031 786.953125 C 1223.785156 781.238281 1231.34375 773.238281 1234.53125 763.371094 C 1236.117188 758.464844 1236.570312 753.203125 1235.6875 748.117188 C 1234.859375 743.339844 1232.597656 738.140625 1228.535156 735.269531 C 1224.609375 732.5 1218.667969 731.582031 1214.414062 734.132812 C 1210.8125 736.292969 1208.976562 740.503906 1208.457031 744.527344 C 1207.492188 752.027344 1212.082031 759.480469 1217.300781 764.523438 C 1223.175781 770.203125 1231.019531 773.417969 1239.160156 773.667969 C 1243.375 773.796875 1247.6875 773.164062 1251.828125 772.402344 C 1255.941406 771.644531 1259.980469 770.4375 1263.722656 768.550781 C 1268.011719 766.394531 1271.699219 763.238281 1274.464844 759.316406 C 1277.578125 754.90625 1279.246094 749.621094 1279.648438 744.269531 C 1280.136719 737.847656 1278.675781 730.929688 1275.257812 725.453125 C 1272.765625 721.464844 1268.976562 718.019531 1264.582031 716.261719 C 1259.851562 714.371094 1254.796875 716.058594 1251.628906 719.902344 C 1249.457031 722.542969 1247.886719 725.730469 1247.417969 729.136719 C 1246.714844 734.203125 1248.144531 739.191406 1250.464844 743.667969 C 1253.5 749.523438 1258.035156 754.824219 1263.6875 758.273438 C 1272.535156 763.679688 1283.457031 764.054688 1292.933594 760.121094 C 1298.246094 757.914062 1303.121094 754.714844 1307.03125 750.460938 C 1312.210938 744.828125 1315.113281 737.777344 1315.84375 730.214844 C 1316.25 726.007812 1315.902344 721.574219 1314.304688 717.632812 C 1312.972656 714.339844 1310.90625 711.519531 1308.148438 709.296875 C 1304.652344 706.488281 1300.332031 704.242188 1295.714844 704.851562 C 1290.609375 705.53125 1287.074219 709.464844 1285.207031 714.027344 C 1283.527344 718.128906 1283.40625 722.671875 1284.871094 726.855469 C 1286.488281 731.476562 1289.527344 735.535156 1293.183594 738.746094 C 1297.039062 742.125 1301.609375 744.765625 1306.5625 746.15625 C 1311.957031 747.667969 1317.6875 747.484375 1323.058594 745.964844 C 1326.828125 744.894531 1330.371094 743.183594 1333.769531 741.25 C 1338.1875 738.738281 1342.1875 735.449219 1345.488281 731.582031 C 1347.667969 729.023438 1349.597656 726.25 1351.1875 723.285156 C 1351.773438 722.199219 1351.460938 720.800781 1350.371094 720.164062 C 1349.332031 719.558594 1347.832031 719.894531 1347.246094 720.984375 C 1346.625 722.136719 1345.957031 723.265625 1345.238281 724.363281 C 1344.777344 725.066406 1344.296875 725.757812 1343.796875 726.433594 C 1343.664062 726.609375 1343.53125 726.785156 1343.402344 726.957031 C 1343.667969 726.601562 1343.3125 727.070312 1343.222656 727.183594 C 1342.90625 727.578125 1342.585938 727.96875 1342.257812 728.351562 C 1340.84375 730.011719 1339.308594 731.5625 1337.65625 732.984375 C 1335.863281 734.53125 1333.953125 735.878906 1331.761719 737.140625 C 1330.441406 737.898438 1329.105469 738.632812 1327.734375 739.300781 C 1327.335938 739.496094 1326.9375 739.683594 1326.53125 739.863281 C 1326.320312 739.957031 1326.109375 740.050781 1325.898438 740.144531 C 1325.570312 740.285156 1326.210938 740.015625 1325.878906 740.152344 C 1325.75 740.203125 1325.625 740.257812 1325.496094 740.308594 C 1324.515625 740.699219 1323.515625 741.054688 1322.507812 741.363281 C 1317.871094 742.78125 1313.195312 743.128906 1308.457031 741.933594 C 1306.109375 741.339844 1304.402344 740.65625 1302.371094 739.582031 C 1301.308594 739.019531 1300.273438 738.398438 1299.277344 737.722656 C 1298.8125 737.410156 1298.355469 737.082031 1297.90625 736.746094 C 1297.617188 736.53125 1297.886719 736.738281 1297.609375 736.511719 C 1297.328125 736.289062 1297.050781 736.0625 1296.777344 735.828125 C 1295.902344 735.082031 1295.070312 734.296875 1294.28125 733.464844 C 1293.90625 733.066406 1293.542969 732.664062 1293.1875 732.246094 C 1293.039062 732.070312 1292.890625 731.890625 1292.746094 731.710938 C 1292.648438 731.59375 1292.554688 731.472656 1292.457031 731.351562 C 1292.644531 731.589844 1292.394531 731.261719 1292.328125 731.175781 C 1291.683594 730.300781 1291.089844 729.390625 1290.5625 728.441406 C 1290.3125 727.996094 1290.078125 727.539062 1289.859375 727.078125 C 1289.765625 726.882812 1289.679688 726.683594 1289.589844 726.488281 C 1289.746094 726.835938 1289.597656 726.5 1289.574219 726.4375 C 1289.507812 726.269531 1289.445312 726.105469 1289.382812 725.941406 C 1289.035156 724.992188 1288.757812 724.015625 1288.570312 723.023438 C 1288.550781 722.914062 1288.453125 722.28125 1288.484375 722.515625 C 1288.515625 722.75 1288.441406 722.09375 1288.433594 722.007812 C 1288.394531 721.503906 1288.378906 720.996094 1288.390625 720.488281 C 1288.394531 720.253906 1288.40625 720.019531 1288.421875 719.78125 C 1288.433594 719.679688 1288.5 719.003906 1288.464844 719.296875 C 1288.429688 719.597656 1288.519531 718.972656 1288.53125 718.902344 C 1288.570312 718.667969 1288.621094 718.429688 1288.671875 718.195312 C 1288.875 717.285156 1289.15625 716.390625 1289.496094 715.519531 C 1289.53125 715.425781 1289.570312 715.332031 1289.609375 715.238281 C 1289.574219 715.328125 1289.429688 715.621094 1289.621094 715.226562 C 1289.726562 715.011719 1289.824219 714.792969 1289.933594 714.582031 C 1290.167969 714.121094 1290.425781 713.671875 1290.707031 713.234375 C 1290.835938 713.03125 1290.972656 712.832031 1291.113281 712.632812 C 1291.175781 712.546875 1291.234375 712.464844 1291.300781 712.382812 C 1291.238281 712.460938 1291.042969 712.679688 1291.328125 712.355469 C 1291.675781 711.960938 1292.015625 711.574219 1292.402344 711.21875 C 1292.582031 711.054688 1292.765625 710.894531 1292.953125 710.742188 C 1292.652344 710.984375 1293.15625 710.605469 1293.25 710.542969 C 1293.691406 710.25 1294.15625 709.988281 1294.640625 709.777344 C 1294.289062 709.929688 1294.902344 709.691406 1295.007812 709.65625 C 1295.257812 709.578125 1295.511719 709.503906 1295.765625 709.449219 C 1295.875 709.421875 1295.980469 709.402344 1296.089844 709.382812 C 1296.152344 709.371094 1296.601562 709.304688 1296.324219 709.335938 C 1296.070312 709.367188 1296.425781 709.332031 1296.449219 709.332031 C 1296.625 709.324219 1296.800781 709.308594 1296.980469 709.304688 C 1297.226562 709.296875 1297.472656 709.300781 1297.71875 709.3125 C 1297.832031 709.316406 1298.464844 709.378906 1298.246094 709.347656 C 1298.03125 709.320312 1298.675781 709.429688 1298.761719 709.445312 C 1299.03125 709.503906 1299.300781 709.570312 1299.566406 709.644531 C 1300.027344 709.773438 1300.476562 709.933594 1300.921875 710.105469 C 1300.949219 710.113281 1301.257812 710.246094 1301.023438 710.144531 C 1300.769531 710.035156 1301.152344 710.207031 1301.210938 710.234375 C 1301.449219 710.347656 1301.6875 710.464844 1301.921875 710.585938 C 1302.730469 711.007812 1303.503906 711.492188 1304.246094 712.019531 C 1304.414062 712.136719 1304.574219 712.257812 1304.738281 712.378906 C 1305.160156 712.691406 1304.5625 712.222656 1304.859375 712.472656 C 1305.140625 712.710938 1305.433594 712.941406 1305.710938 713.183594 C 1306.453125 713.835938 1307.15625 714.527344 1307.785156 715.289062 C 1307.859375 715.382812 1307.933594 715.472656 1308.007812 715.566406 C 1307.816406 715.320312 1308.050781 715.628906 1308.074219 715.660156 C 1308.226562 715.882812 1308.382812 716.101562 1308.53125 716.324219 C 1308.839844 716.796875 1309.125 717.285156 1309.390625 717.785156 C 1309.511719 718.015625 1309.628906 718.246094 1309.738281 718.480469 C 1309.785156 718.578125 1310.054688 719.207031 1309.90625 718.84375 C 1310.113281 719.34375 1310.292969 719.851562 1310.457031 720.371094 C 1310.761719 721.34375 1310.996094 722.339844 1311.164062 723.34375 C 1311.1875 723.476562 1311.273438 724.0625 1311.246094 723.859375 C 1311.210938 723.589844 1311.253906 723.925781 1311.253906 723.960938 C 1311.269531 724.09375 1311.285156 724.230469 1311.300781 724.363281 C 1311.347656 724.859375 1311.382812 725.359375 1311.40625 725.859375 C 1311.484375 727.621094 1311.382812 729.375 1311.179688 731.125 C 1311.117188 731.667969 1311.230469 730.820312 1311.167969 731.230469 C 1311.140625 731.402344 1311.117188 731.582031 1311.085938 731.757812 C 1311.03125 732.105469 1310.96875 732.457031 1310.90625 732.804688 C 1310.796875 733.367188 1310.679688 733.925781 1310.546875 734.476562 C 1310.246094 735.738281 1309.878906 736.984375 1309.429688 738.203125 C 1309.332031 738.460938 1309.234375 738.714844 1309.132812 738.96875 C 1309.113281 739.011719 1308.960938 739.371094 1309.09375 739.0625 C 1309.046875 739.167969 1309.003906 739.273438 1308.957031 739.378906 C 1308.726562 739.894531 1308.484375 740.402344 1308.222656 740.90625 C 1307.742188 741.839844 1307.207031 742.746094 1306.632812 743.625 C 1306.363281 744.035156 1306.085938 744.433594 1305.796875 744.828125 C 1305.65625 745.023438 1305.511719 745.214844 1305.367188 745.40625 C 1305.625 745.066406 1305.175781 745.640625 1305.09375 745.738281 C 1304.5 746.472656 1303.871094 747.175781 1303.214844 747.855469 C 1302.597656 748.492188 1301.957031 749.105469 1301.296875 749.691406 C 1300.992188 749.960938 1300.6875 750.222656 1300.375 750.484375 C 1300.222656 750.609375 1300.070312 750.734375 1299.917969 750.855469 C 1299.851562 750.910156 1299.320312 751.324219 1299.570312 751.132812 C 1299.835938 750.929688 1299.363281 751.289062 1299.292969 751.339844 C 1299.148438 751.449219 1299 751.554688 1298.855469 751.660156 C 1298.554688 751.878906 1298.25 752.089844 1297.945312 752.300781 C 1297.410156 752.664062 1296.863281 753.011719 1296.3125 753.347656 C 1295.488281 753.847656 1294.648438 754.316406 1293.789062 754.746094 C 1293.476562 754.902344 1293.164062 755.050781 1292.847656 755.199219 C 1292.601562 755.3125 1292.359375 755.425781 1292.113281 755.535156 C 1291.972656 755.597656 1291.832031 755.660156 1291.695312 755.722656 C 1291.238281 755.921875 1292.117188 755.550781 1291.515625 755.796875 C 1289.867188 756.464844 1288.179688 757.027344 1286.453125 757.445312 C 1285.433594 757.691406 1284.398438 757.894531 1283.355469 758.035156 C 1283.703125 757.988281 1283.304688 758.039062 1283.253906 758.042969 C 1283.09375 758.0625 1282.933594 758.078125 1282.773438 758.097656 C 1282.527344 758.121094 1282.28125 758.140625 1282.035156 758.160156 C 1281.359375 758.210938 1280.683594 758.238281 1280.003906 758.242188 C 1274.984375 758.273438 1270.207031 756.902344 1265.992188 754.328125 C 1265.550781 754.058594 1265.117188 753.777344 1264.691406 753.484375 C 1264.511719 753.363281 1264.339844 753.242188 1264.164062 753.117188 C 1264.050781 753.035156 1263.9375 752.953125 1263.824219 752.871094 C 1263.78125 752.839844 1263.339844 752.503906 1263.5625 752.675781 C 1263.714844 752.792969 1263.230469 752.410156 1263.164062 752.355469 C 1263.011719 752.230469 1262.859375 752.105469 1262.710938 751.980469 C 1262.332031 751.660156 1261.960938 751.328125 1261.597656 750.992188 C 1260.535156 750 1259.542969 748.933594 1258.625 747.804688 C 1258.480469 747.628906 1258.332031 747.34375 1258.148438 747.203125 C 1258.300781 747.320312 1258.496094 747.660156 1258.246094 747.328125 C 1258.179688 747.242188 1258.113281 747.152344 1258.046875 747.066406 C 1257.769531 746.695312 1257.496094 746.324219 1257.226562 745.945312 C 1256.320312 744.667969 1255.480469 743.34375 1254.730469 741.96875 C 1253.664062 740.003906 1253.113281 738.78125 1252.492188 736.589844 C 1252.347656 736.074219 1252.214844 735.554688 1252.109375 735.027344 C 1252.050781 734.761719 1252.003906 734.496094 1251.957031 734.230469 C 1251.9375 734.113281 1251.917969 734 1251.902344 733.882812 C 1251.953125 734.203125 1251.890625 733.800781 1251.878906 733.675781 C 1251.753906 732.519531 1251.769531 731.378906 1251.847656 730.222656 C 1251.847656 730.226562 1251.890625 729.832031 1251.863281 730.042969 C 1251.835938 730.285156 1251.902344 729.789062 1251.910156 729.742188 C 1251.957031 729.457031 1252.011719 729.175781 1252.078125 728.894531 C 1252.21875 728.277344 1252.398438 727.671875 1252.617188 727.078125 C 1252.667969 726.933594 1252.726562 726.789062 1252.78125 726.644531 C 1252.914062 726.304688 1252.761719 726.734375 1252.6875 726.871094 C 1252.746094 726.761719 1252.789062 726.636719 1252.839844 726.523438 C 1253.09375 725.964844 1253.378906 725.417969 1253.6875 724.886719 C 1253.867188 724.570312 1254.058594 724.261719 1254.261719 723.960938 C 1254.367188 723.800781 1254.476562 723.640625 1254.589844 723.484375 C 1254.636719 723.417969 1254.691406 723.351562 1254.738281 723.28125 C 1254.886719 723.054688 1254.476562 723.59375 1254.75 723.265625 C 1255.316406 722.585938 1255.914062 721.957031 1256.589844 721.390625 C 1256.789062 721.222656 1256.519531 721.441406 1256.496094 721.457031 C 1256.597656 721.382812 1256.699219 721.308594 1256.804688 721.238281 C 1256.988281 721.113281 1257.171875 720.992188 1257.363281 720.878906 C 1257.558594 720.765625 1257.753906 720.65625 1257.953125 720.558594 C 1258.042969 720.515625 1258.128906 720.472656 1258.21875 720.433594 C 1258.453125 720.320312 1257.898438 720.527344 1258.304688 720.402344 C 1260.347656 719.789062 1262.070312 720.007812 1263.753906 720.851562 C 1264.628906 721.292969 1265.457031 721.828125 1266.253906 722.398438 C 1266.519531 722.589844 1267.015625 722.953125 1267.140625 723.050781 C 1267.136719 723.050781 1267.5 723.351562 1267.640625 723.472656 C 1267.878906 723.675781 1268.109375 723.886719 1268.332031 724.097656 C 1268.71875 724.464844 1269.089844 724.847656 1269.445312 725.242188 C 1269.621094 725.4375 1269.792969 725.636719 1269.957031 725.835938 C 1270.03125 725.921875 1270.101562 726.007812 1270.167969 726.09375 C 1270.613281 726.636719 1270.046875 725.917969 1270.285156 726.242188 C 1270.898438 727.070312 1271.460938 727.9375 1271.957031 728.84375 C 1272.191406 729.265625 1272.410156 729.691406 1272.617188 730.125 C 1272.71875 730.335938 1272.8125 730.550781 1272.910156 730.761719 C 1272.953125 730.851562 1272.992188 730.945312 1273.03125 731.035156 C 1272.847656 730.613281 1273.03125 731.039062 1273.066406 731.128906 C 1273.398438 731.972656 1273.699219 732.824219 1273.957031 733.695312 C 1274.386719 735.148438 1274.695312 736.628906 1274.925781 738.128906 C 1274.9375 738.210938 1274.941406 738.304688 1274.960938 738.382812 C 1274.96875 738.417969 1274.894531 737.832031 1274.921875 738.082031 C 1274.933594 738.214844 1274.953125 738.351562 1274.96875 738.484375 C 1275 738.742188 1275.027344 738.996094 1275.050781 739.253906 C 1275.085938 739.652344 1275.113281 740.050781 1275.132812 740.449219 C 1275.210938 741.878906 1275.179688 743.3125 1275.050781 744.738281 C 1275.03125 744.96875 1275.003906 745.195312 1274.980469 745.425781 C 1274.972656 745.492188 1274.921875 745.917969 1274.957031 745.632812 C 1274.992188 745.367188 1274.945312 745.714844 1274.941406 745.746094 C 1274.855469 746.292969 1274.765625 746.839844 1274.652344 747.382812 C 1274.417969 748.542969 1274.109375 749.6875 1273.726562 750.804688 C 1272.933594 753.144531 1271.699219 755.402344 1270.179688 757.496094 C 1269.910156 757.867188 1270.042969 757.679688 1270.109375 757.597656 C 1270.035156 757.691406 1269.960938 757.78125 1269.890625 757.875 C 1269.71875 758.085938 1269.542969 758.292969 1269.367188 758.5 C 1268.996094 758.929688 1268.605469 759.351562 1268.207031 759.757812 C 1267.453125 760.519531 1266.652344 761.234375 1265.808594 761.898438 C 1266.09375 761.675781 1265.578125 762.074219 1265.496094 762.132812 C 1265.292969 762.28125 1265.085938 762.425781 1264.878906 762.570312 C 1264.414062 762.890625 1263.933594 763.199219 1263.449219 763.492188 C 1262.609375 764 1261.75 764.460938 1260.867188 764.882812 C 1260.433594 765.089844 1259.996094 765.289062 1259.554688 765.480469 C 1259.964844 765.304688 1259.351562 765.558594 1259.25 765.597656 C 1258.96875 765.710938 1258.683594 765.820312 1258.398438 765.925781 C 1257.53125 766.246094 1256.644531 766.535156 1255.753906 766.796875 C 1254.011719 767.304688 1252.234375 767.707031 1250.445312 768.03125 C 1249.59375 768.1875 1248.742188 768.324219 1247.886719 768.445312 C 1247.726562 768.46875 1247.5625 768.492188 1247.398438 768.515625 C 1247.292969 768.53125 1247.183594 768.546875 1247.078125 768.5625 C 1247.132812 768.554688 1247.617188 768.492188 1247.210938 768.542969 C 1246.828125 768.59375 1246.445312 768.644531 1246.0625 768.691406 C 1243.769531 768.972656 1241.480469 769.171875 1239.164062 769.101562 C 1238.085938 769.070312 1237.011719 768.984375 1235.941406 768.851562 C 1236.390625 768.90625 1235.855469 768.835938 1235.691406 768.808594 C 1235.484375 768.777344 1235.277344 768.742188 1235.070312 768.707031 C 1234.671875 768.636719 1234.277344 768.558594 1233.886719 768.46875 C 1232.660156 768.199219 1231.457031 767.835938 1230.277344 767.40625 C 1229.175781 767.007812 1228.296875 766.617188 1227.171875 766.03125 C 1226.195312 765.523438 1225.242188 764.960938 1224.324219 764.351562 C 1223.929688 764.085938 1223.535156 763.8125 1223.152344 763.527344 C 1222.96875 763.394531 1222.789062 763.261719 1222.613281 763.125 C 1222.976562 763.40625 1222.492188 763.023438 1222.363281 762.917969 C 1221.78125 762.445312 1221.21875 761.949219 1220.675781 761.433594 C 1220.027344 760.816406 1219.417969 760.160156 1218.832031 759.484375 C 1218.429688 759.019531 1218.039062 758.546875 1217.65625 758.070312 C 1217.605469 758.007812 1217.5625 757.949219 1217.511719 757.886719 C 1217.320312 757.648438 1217.761719 758.230469 1217.578125 757.972656 C 1217.46875 757.8125 1217.34375 757.660156 1217.230469 757.503906 C 1216.964844 757.140625 1216.703125 756.773438 1216.453125 756.398438 C 1215.914062 755.59375 1215.414062 754.765625 1214.960938 753.914062 C 1214.726562 753.472656 1214.503906 753.023438 1214.296875 752.566406 C 1214.25 752.46875 1214.207031 752.367188 1214.164062 752.269531 C 1214.015625 751.925781 1214.277344 752.554688 1214.136719 752.207031 C 1214.027344 751.929688 1213.921875 751.652344 1213.820312 751.371094 C 1213.453125 750.332031 1213.179688 749.265625 1213 748.175781 C 1212.988281 748.117188 1212.949219 747.730469 1212.988281 748.09375 C 1212.976562 747.976562 1212.964844 747.859375 1212.953125 747.742188 C 1212.929688 747.472656 1212.910156 747.195312 1212.902344 746.921875 C 1212.882812 746.324219 1212.902344 745.726562 1212.957031 745.132812 C 1212.96875 745.011719 1212.980469 744.890625 1213 744.769531 C 1212.953125 745.09375 1213.019531 744.6875 1213.027344 744.648438 C 1213.085938 744.363281 1213.140625 744.078125 1213.210938 743.792969 C 1213.269531 743.558594 1213.328125 743.324219 1213.398438 743.09375 C 1213.476562 742.816406 1213.5625 742.542969 1213.65625 742.273438 C 1213.710938 742.113281 1213.773438 741.957031 1213.828125 741.796875 C 1214.003906 741.3125 1213.675781 742.089844 1213.90625 741.605469 C 1214.085938 741.230469 1214.261719 740.863281 1214.46875 740.507812 C 1214.578125 740.316406 1214.691406 740.132812 1214.8125 739.949219 C 1214.886719 739.832031 1215.308594 739.28125 1215.023438 739.628906 C 1215.324219 739.261719 1215.644531 738.914062 1215.996094 738.601562 C 1216.101562 738.507812 1216.203125 738.414062 1216.3125 738.332031 C 1216.277344 738.359375 1216.058594 738.515625 1216.273438 738.371094 C 1216.511719 738.207031 1216.757812 738.050781 1217.011719 737.914062 C 1217.117188 737.855469 1217.730469 737.585938 1217.34375 737.734375 C 1217.578125 737.644531 1217.8125 737.566406 1218.050781 737.5 C 1218.289062 737.429688 1218.53125 737.371094 1218.777344 737.320312 C 1218.917969 737.292969 1219.058594 737.269531 1219.199219 737.246094 C 1218.960938 737.285156 1219.050781 737.261719 1219.238281 737.253906 C 1219.75 737.230469 1220.25 737.203125 1220.761719 737.230469 C 1220.910156 737.238281 1221.054688 737.253906 1221.203125 737.261719 C 1221.222656 737.265625 1221.582031 737.304688 1221.335938 737.273438 C 1221.09375 737.242188 1221.453125 737.292969 1221.472656 737.292969 C 1221.65625 737.328125 1221.835938 737.359375 1222.019531 737.398438 C 1222.523438 737.503906 1223.023438 737.640625 1223.511719 737.804688 C 1223.757812 737.886719 1224 737.972656 1224.238281 738.070312 C 1223.878906 737.925781 1224.578125 738.234375 1224.683594 738.289062 C 1225.128906 738.511719 1225.5625 738.757812 1225.976562 739.035156 C 1226.089844 739.113281 1226.203125 739.191406 1226.320312 739.273438 C 1226.339844 739.285156 1226.609375 739.492188 1226.414062 739.339844 C 1226.222656 739.1875 1226.484375 739.402344 1226.503906 739.417969 C 1226.625 739.53125 1226.753906 739.636719 1226.878906 739.75 C 1227.042969 739.90625 1227.207031 740.066406 1227.359375 740.238281 C 1227.445312 740.332031 1227.527344 740.433594 1227.613281 740.527344 C 1227.582031 740.492188 1227.382812 740.210938 1227.5625 740.457031 C 1227.910156 740.933594 1228.246094 741.421875 1228.558594 741.925781 C 1228.847656 742.394531 1229.117188 742.871094 1229.367188 743.359375 C 1229.492188 743.601562 1229.613281 743.847656 1229.726562 744.09375 C 1229.777344 744.199219 1229.824219 744.304688 1229.871094 744.414062 C 1230.179688 745.089844 1229.800781 744.226562 1229.960938 744.621094 C 1230.378906 745.667969 1230.722656 746.746094 1230.984375 747.839844 C 1231.109375 748.371094 1231.21875 748.910156 1231.308594 749.445312 C 1231.335938 749.601562 1231.359375 749.753906 1231.382812 749.910156 C 1231.382812 749.914062 1231.4375 750.296875 1231.40625 750.074219 C 1231.378906 749.847656 1231.421875 750.230469 1231.425781 750.238281 C 1231.445312 750.433594 1231.464844 750.628906 1231.484375 750.824219 C 1231.585938 751.964844 1231.613281 753.113281 1231.574219 754.257812 C 1231.554688 754.816406 1231.519531 755.371094 1231.46875 755.925781 C 1231.441406 756.207031 1231.410156 756.484375 1231.378906 756.761719 C 1231.332031 757.160156 1231.421875 756.472656 1231.363281 756.871094 C 1231.34375 757.027344 1231.316406 757.1875 1231.292969 757.34375 C 1230.921875 759.652344 1230.296875 761.921875 1229.441406 764.097656 C 1229.125 764.898438 1228.640625 765.941406 1228.105469 766.953125 C 1227.546875 768 1226.929688 769.011719 1226.269531 769.992188 C 1224.894531 772.03125 1223.515625 773.738281 1221.785156 775.578125 C 1220.167969 777.296875 1218.425781 778.902344 1216.59375 780.390625 C 1216.414062 780.535156 1216.234375 780.675781 1216.054688 780.820312 C 1215.9375 780.914062 1215.816406 781.007812 1215.695312 781.101562 C 1215.734375 781.070312 1215.917969 780.933594 1215.710938 781.089844 C 1215.269531 781.425781 1214.820312 781.753906 1214.367188 782.082031 C 1213.5 782.703125 1212.613281 783.304688 1211.710938 783.878906 C 1208.800781 785.738281 1205.734375 787.351562 1202.574219 788.746094 C 1202.277344 788.878906 1201.980469 789.007812 1201.679688 789.132812 C 1202.011719 788.992188 1201.332031 789.277344 1201.238281 789.316406 C 1200.90625 789.449219 1200.578125 789.582031 1200.246094 789.710938 C 1199.011719 790.1875 1197.765625 790.628906 1196.507812 791.03125 C 1194.480469 791.675781 1192.421875 792.21875 1190.339844 792.667969 C 1189.132812 792.925781 1188.433594 794.335938 1188.746094 795.476562 C 1189.089844 796.722656 1190.34375 797.332031 1191.554688 797.070312 Z M 1191.550781 797.070312 " fill-opacity="1" fill-rule="nonzero"/></g><g clip-path="url(#91cdf05cc8)"><g clip-path="url(#054408b1e6)"><g clip-path="url(#9fafd8d4e7)"><path fill="#004aad" d="M 814.453125 707.566406 C 814.128906 707.492188 813.867188 707.589844 813.671875 707.863281 L 790.367188 740.886719 L 780.523438 683.816406 C 780.464844 683.488281 780.273438 683.289062 779.945312 683.214844 C 779.621094 683.140625 779.359375 683.242188 779.164062 683.515625 L 755.863281 716.535156 L 746.015625 659.46875 C 745.9375 659.164062 745.746094 658.980469 745.4375 658.914062 C 745.132812 658.851562 744.882812 658.945312 744.691406 659.195312 L 721.386719 692.214844 L 711.539062 635.148438 C 711.480469 634.828125 711.289062 634.628906 710.96875 634.554688 C 710.648438 634.484375 710.394531 634.578125 710.199219 634.839844 L 633.566406 743.472656 C 633.382812 743.746094 633.378906 744.019531 633.554688 744.296875 C 633.730469 744.570312 633.980469 744.683594 634.304688 744.636719 L 691.335938 734.796875 L 668.066406 767.8125 C 667.875 768.085938 667.867188 768.363281 668.042969 768.648438 C 668.222656 768.929688 668.480469 769.042969 668.808594 768.984375 L 725.832031 759.148438 L 702.550781 792.167969 C 702.359375 792.4375 702.351562 792.71875 702.527344 793 C 702.707031 793.28125 702.960938 793.394531 703.289062 793.339844 L 760.324219 783.5 L 737.042969 816.519531 C 736.851562 816.792969 736.84375 817.070312 737.023438 817.351562 C 737.199219 817.632812 737.453125 817.746094 737.78125 817.691406 L 830.402344 801.710938 C 830.605469 801.675781 830.769531 801.574219 830.890625 801.40625 C 831.007812 801.234375 831.050781 801.046875 831.015625 800.84375 L 815.03125 708.203125 C 814.988281 707.855469 814.792969 707.640625 814.453125 707.566406 Z M 635.839844 742.84375 L 710.382812 637.191406 L 720.175781 693.949219 L 692.5625 733.058594 Z M 720.53125 696.019531 L 725.929688 727.300781 L 694.660156 732.695312 Z M 670.332031 767.199219 L 693.433594 734.433594 L 726.925781 728.65625 C 727.128906 728.621094 727.292969 728.519531 727.410156 728.347656 C 727.53125 728.179688 727.574219 727.992188 727.539062 727.789062 L 721.761719 694.296875 L 744.871094 661.53125 L 754.664062 718.28125 L 727.070312 757.410156 Z M 755.023438 720.375 L 760.421875 751.652344 L 729.152344 757.046875 Z M 704.824219 791.542969 L 727.925781 758.789062 L 761.417969 753.011719 C 761.621094 752.976562 761.785156 752.875 761.90625 752.703125 C 762.023438 752.535156 762.066406 752.347656 762.03125 752.144531 L 756.25 718.636719 L 779.363281 685.867188 L 789.152344 742.621094 L 761.558594 781.753906 Z M 789.515625 744.71875 L 794.910156 776 L 763.644531 781.394531 Z M 829.402344 800.339844 L 739.324219 815.878906 L 762.425781 783.128906 L 795.910156 777.351562 C 796.113281 777.316406 796.277344 777.214844 796.394531 777.046875 C 796.515625 776.875 796.558594 776.6875 796.523438 776.484375 L 790.742188 742.980469 L 813.855469 710.226562 Z M 829.402344 800.339844 " fill-opacity="1" fill-rule="nonzero"/></g></g></g><g clip-path="url(#ecbd00da68)"><g clip-path="url(#23e8a3cd01)"><g clip-path="url(#50f1552446)"><path fill="#004aad" d="M 1423.480469 888.492188 C 1423.730469 888.59375 1423.980469 888.59375 1424.226562 888.492188 C 1424.476562 888.386719 1424.648438 888.210938 1424.753906 887.964844 C 1424.855469 887.714844 1424.855469 887.46875 1424.75 887.21875 C 1424.648438 886.972656 1424.472656 886.796875 1424.222656 886.695312 L 1394.84375 874.570312 L 1406.597656 846.085938 L 1435.976562 858.207031 C 1436.226562 858.308594 1436.472656 858.308594 1436.722656 858.207031 C 1436.96875 858.101562 1437.144531 857.925781 1437.246094 857.679688 C 1437.351562 857.429688 1437.351562 857.183594 1437.246094 856.933594 C 1437.144531 856.6875 1436.96875 856.511719 1436.71875 856.410156 L 1407.339844 844.285156 L 1419.460938 814.90625 C 1419.5625 814.65625 1419.5625 814.410156 1419.460938 814.160156 C 1419.355469 813.914062 1419.179688 813.738281 1418.933594 813.632812 C 1418.683594 813.53125 1418.4375 813.53125 1418.1875 813.636719 C 1417.941406 813.738281 1417.765625 813.914062 1417.660156 814.164062 L 1405.539062 843.542969 L 1377.054688 831.792969 L 1389.175781 802.410156 C 1389.277344 802.160156 1389.277344 801.914062 1389.175781 801.664062 C 1389.070312 801.417969 1388.894531 801.242188 1388.648438 801.140625 C 1388.398438 801.035156 1388.152344 801.039062 1387.902344 801.140625 C 1387.65625 801.242188 1387.480469 801.417969 1387.375 801.667969 L 1375.253906 831.046875 L 1346.773438 819.296875 L 1358.894531 789.917969 C 1358.996094 789.667969 1358.996094 789.421875 1358.894531 789.171875 C 1358.792969 788.925781 1358.617188 788.75 1358.367188 788.644531 C 1358.117188 788.542969 1357.871094 788.542969 1357.621094 788.648438 C 1357.375 788.75 1357.199219 788.925781 1357.097656 789.175781 L 1344.972656 818.554688 L 1316.492188 806.804688 L 1328.613281 777.421875 C 1328.71875 777.175781 1328.71875 776.925781 1328.613281 776.679688 C 1328.511719 776.429688 1328.335938 776.253906 1328.085938 776.152344 C 1327.839844 776.050781 1327.589844 776.050781 1327.339844 776.152344 C 1327.09375 776.257812 1326.917969 776.433594 1326.816406 776.679688 L 1314.695312 806.0625 L 1286.207031 794.308594 L 1298.328125 764.929688 C 1298.433594 764.679688 1298.433594 764.429688 1298.328125 764.183594 C 1298.226562 763.933594 1298.050781 763.761719 1297.800781 763.65625 C 1297.554688 763.554688 1297.304688 763.554688 1297.058594 763.660156 C 1296.808594 763.761719 1296.632812 763.9375 1296.53125 764.1875 L 1284.410156 793.566406 L 1255.027344 781.445312 C 1254.777344 781.34375 1254.53125 781.34375 1254.28125 781.445312 C 1254.035156 781.546875 1253.859375 781.722656 1253.757812 781.972656 C 1253.65625 782.222656 1253.65625 782.46875 1253.757812 782.71875 C 1253.859375 782.964844 1254.035156 783.140625 1254.285156 783.242188 L 1283.667969 795.367188 L 1271.914062 823.851562 L 1242.53125 811.730469 C 1242.285156 811.628906 1242.035156 811.628906 1241.789062 811.730469 C 1241.539062 811.832031 1241.363281 812.007812 1241.261719 812.257812 C 1241.160156 812.507812 1241.160156 812.753906 1241.261719 813.003906 C 1241.367188 813.25 1241.542969 813.425781 1241.789062 813.527344 L 1271.171875 825.652344 L 1259.421875 854.132812 L 1230.039062 842.011719 C 1229.789062 841.90625 1229.542969 841.90625 1229.292969 842.011719 C 1229.046875 842.113281 1228.871094 842.289062 1228.769531 842.539062 C 1228.664062 842.785156 1228.667969 843.035156 1228.769531 843.28125 C 1228.871094 843.53125 1229.046875 843.707031 1229.296875 843.808594 L 1258.679688 855.929688 L 1246.925781 884.414062 L 1217.546875 872.289062 C 1217.296875 872.1875 1217.050781 872.1875 1216.800781 872.292969 C 1216.554688 872.394531 1216.378906 872.570312 1216.273438 872.820312 C 1216.171875 873.066406 1216.171875 873.316406 1216.277344 873.5625 C 1216.378906 873.8125 1216.554688 873.988281 1216.804688 874.089844 L 1246.183594 886.210938 L 1234.429688 914.699219 L 1205.050781 902.574219 C 1204.800781 902.472656 1204.554688 902.472656 1204.304688 902.578125 C 1204.058594 902.679688 1203.882812 902.855469 1203.78125 903.105469 C 1203.675781 903.351562 1203.675781 903.601562 1203.78125 903.847656 C 1203.882812 904.097656 1204.058594 904.273438 1204.308594 904.375 L 1233.6875 916.496094 L 1221.566406 945.878906 C 1221.464844 946.125 1221.464844 946.375 1221.566406 946.621094 C 1221.671875 946.871094 1221.847656 947.046875 1222.09375 947.148438 C 1222.34375 947.25 1222.59375 947.25 1222.839844 947.148438 C 1223.089844 947.042969 1223.261719 946.867188 1223.367188 946.621094 L 1235.488281 917.238281 L 1263.972656 928.992188 L 1251.851562 958.371094 C 1251.75 958.621094 1251.75 958.871094 1251.851562 959.117188 C 1251.957031 959.367188 1252.132812 959.539062 1252.378906 959.644531 C 1252.628906 959.746094 1252.875 959.746094 1253.125 959.640625 C 1253.371094 959.539062 1253.546875 959.363281 1253.652344 959.113281 L 1265.773438 929.734375 L 1294.253906 941.484375 L 1282.132812 970.867188 C 1282.03125 971.113281 1282.03125 971.363281 1282.132812 971.609375 C 1282.238281 971.859375 1282.414062 972.035156 1282.660156 972.136719 C 1282.910156 972.238281 1283.15625 972.238281 1283.40625 972.136719 C 1283.652344 972.03125 1283.828125 971.855469 1283.929688 971.609375 L 1296.054688 942.226562 L 1324.535156 953.980469 L 1312.414062 983.359375 C 1312.308594 983.609375 1312.3125 983.855469 1312.414062 984.105469 C 1312.515625 984.351562 1312.691406 984.527344 1312.941406 984.628906 C 1313.191406 984.734375 1313.4375 984.730469 1313.6875 984.628906 C 1313.933594 984.527344 1314.109375 984.351562 1314.210938 984.101562 L 1326.332031 954.722656 L 1354.820312 966.472656 L 1342.699219 995.855469 C 1342.59375 996.101562 1342.59375 996.351562 1342.699219 996.597656 C 1342.800781 996.847656 1342.976562 997.023438 1343.226562 997.125 C 1343.472656 997.226562 1343.722656 997.226562 1343.972656 997.125 C 1344.21875 997.019531 1344.394531 996.84375 1344.496094 996.597656 L 1356.617188 967.214844 L 1386 979.339844 C 1386.25 979.441406 1386.496094 979.441406 1386.746094 979.335938 C 1386.992188 979.234375 1387.167969 979.058594 1387.269531 978.808594 C 1387.371094 978.5625 1387.371094 978.3125 1387.269531 978.066406 C 1387.167969 977.816406 1386.992188 977.640625 1386.742188 977.539062 L 1357.359375 965.417969 L 1369.113281 936.929688 L 1398.496094 949.054688 C 1398.742188 949.15625 1398.992188 949.15625 1399.238281 949.050781 C 1399.488281 948.949219 1399.664062 948.773438 1399.765625 948.523438 C 1399.867188 948.277344 1399.867188 948.027344 1399.765625 947.78125 C 1399.660156 947.53125 1399.484375 947.355469 1399.238281 947.253906 L 1369.855469 935.132812 L 1381.609375 906.652344 L 1410.988281 918.773438 C 1411.238281 918.875 1411.484375 918.875 1411.734375 918.773438 C 1411.980469 918.667969 1412.15625 918.492188 1412.257812 918.246094 C 1412.363281 917.996094 1412.359375 917.746094 1412.257812 917.5 C 1412.15625 917.25 1411.980469 917.078125 1411.730469 916.972656 L 1382.351562 904.851562 L 1394.101562 876.371094 Z M 1404.796875 845.34375 L 1393.042969 873.828125 L 1364.558594 862.074219 L 1376.3125 833.589844 Z M 1374.511719 832.847656 L 1362.757812 861.332031 L 1334.277344 849.582031 L 1346.03125 821.097656 Z M 1319.242188 880.917969 L 1307.492188 909.402344 L 1279.011719 897.648438 L 1290.761719 869.167969 Z M 1291.503906 867.371094 L 1303.253906 838.886719 L 1331.738281 850.640625 L 1319.984375 879.121094 Z M 1321.042969 881.660156 L 1349.523438 893.414062 L 1337.773438 921.894531 L 1309.289062 910.144531 Z M 1321.785156 879.863281 L 1333.535156 851.382812 L 1362.015625 863.132812 L 1350.265625 891.613281 Z M 1344.230469 820.355469 L 1332.480469 848.839844 L 1303.996094 837.089844 L 1315.75 808.601562 Z M 1285.464844 796.109375 L 1313.953125 807.859375 L 1302.199219 836.347656 L 1273.710938 824.59375 Z M 1272.96875 826.394531 L 1301.457031 838.144531 L 1289.703125 866.628906 L 1261.21875 854.875 Z M 1260.476562 856.671875 L 1288.960938 868.425781 L 1277.210938 896.90625 L 1248.726562 885.15625 Z M 1236.230469 915.441406 L 1247.984375 886.953125 L 1276.46875 898.707031 L 1264.714844 927.191406 Z M 1266.515625 927.933594 L 1278.269531 899.449219 L 1306.75 911.199219 L 1294.996094 939.6875 Z M 1296.796875 940.429688 L 1308.546875 911.941406 L 1337.03125 923.695312 L 1325.277344 952.179688 Z M 1355.5625 964.675781 L 1327.078125 952.921875 L 1338.828125 924.4375 L 1367.316406 936.1875 Z M 1368.058594 934.390625 L 1339.570312 922.636719 L 1351.324219 894.15625 L 1379.808594 905.910156 Z M 1380.550781 904.109375 L 1352.066406 892.355469 L 1363.816406 863.875 L 1392.300781 875.628906 Z M 1380.550781 904.109375 " fill-opacity="1" fill-rule="nonzero"/></g></g></g><g clip-path="url(#7a0e219573)"><path fill="#004aad" d="M 1136.921875 830.71875 C 1136.921875 801.398438 1113.066406 777.542969 1083.746094 777.542969 C 1081.707031 777.542969 1079.679688 777.660156 1077.65625 777.894531 C 1075.632812 778.128906 1073.628906 778.476562 1071.648438 778.941406 C 1069.664062 779.402344 1067.714844 779.980469 1065.800781 780.667969 C 1063.882812 781.355469 1062.011719 782.152344 1060.1875 783.054688 C 1058.363281 783.957031 1056.59375 784.964844 1054.886719 786.070312 C 1053.175781 787.175781 1051.535156 788.375 1049.964844 789.671875 C 1048.394531 790.964844 1046.902344 792.347656 1045.488281 793.8125 C 1044.078125 795.28125 1042.753906 796.824219 1041.519531 798.441406 C 1035.617188 801.957031 1030.578125 806.4375 1026.402344 811.890625 C 1024.425781 813.0625 1022.53125 814.355469 1020.722656 815.773438 C 1018.914062 817.191406 1017.207031 818.71875 1015.59375 820.355469 C 1013.984375 821.996094 1012.484375 823.730469 1011.101562 825.5625 C 1009.714844 827.394531 1008.453125 829.308594 1007.316406 831.304688 C 1006.175781 833.300781 1005.171875 835.363281 1004.300781 837.488281 C 1003.433594 839.613281 1002.703125 841.789062 1002.113281 844.007812 C 1001.523438 846.230469 1001.078125 848.480469 1000.78125 850.757812 C 1000.484375 853.035156 1000.335938 855.324219 1000.332031 857.621094 C 1000.332031 886.941406 1024.1875 910.796875 1053.511719 910.796875 C 1055.546875 910.796875 1057.574219 910.679688 1059.597656 910.445312 C 1061.621094 910.210938 1063.625 909.863281 1065.605469 909.398438 C 1067.589844 908.9375 1069.539062 908.359375 1071.457031 907.671875 C 1073.371094 906.984375 1075.242188 906.1875 1077.066406 905.285156 C 1078.890625 904.382812 1080.660156 903.378906 1082.367188 902.269531 C 1084.078125 901.164062 1085.71875 899.964844 1087.289062 898.667969 C 1088.859375 897.375 1090.351562 895.992188 1091.765625 894.527344 C 1093.179688 893.058594 1094.5 891.515625 1095.738281 889.898438 C 1101.636719 886.382812 1106.675781 881.898438 1110.855469 876.449219 C 1112.832031 875.277344 1114.722656 873.984375 1116.53125 872.566406 C 1118.339844 871.148438 1120.050781 869.621094 1121.660156 867.984375 C 1123.269531 866.34375 1124.769531 864.609375 1126.152344 862.777344 C 1127.539062 860.945312 1128.800781 859.03125 1129.9375 857.035156 C 1131.078125 855.039062 1132.082031 852.976562 1132.953125 850.851562 C 1133.824219 848.726562 1134.550781 846.550781 1135.140625 844.332031 C 1135.730469 842.109375 1136.175781 839.863281 1136.472656 837.582031 C 1136.769531 835.304688 1136.917969 833.019531 1136.921875 830.71875 Z M 1039.503906 801.25 C 1038.183594 803.230469 1037 805.289062 1035.953125 807.425781 C 1033.714844 808.210938 1031.539062 809.144531 1029.425781 810.21875 C 1032.394531 806.792969 1035.753906 803.804688 1039.503906 801.25 Z M 1083.726562 882.597656 C 1055.121094 882.597656 1031.84375 859.320312 1031.84375 830.714844 C 1031.84375 826.863281 1032.265625 823.0625 1033.117188 819.308594 C 1033.964844 815.554688 1035.21875 811.941406 1036.878906 808.46875 C 1042.273438 806.640625 1047.816406 805.730469 1053.511719 805.734375 C 1082.117188 805.734375 1105.394531 829.007812 1105.394531 857.621094 C 1105.398438 861.46875 1104.976562 865.273438 1104.128906 869.027344 C 1103.28125 872.785156 1102.03125 876.398438 1100.371094 879.875 C 1094.980469 881.699219 1089.4375 882.613281 1083.746094 882.605469 Z M 1099.546875 881.484375 C 1098.1875 884.09375 1096.621094 886.566406 1094.847656 888.910156 C 1090.871094 891.253906 1086.65625 893.03125 1082.207031 894.242188 C 1077.753906 895.453125 1073.222656 896.054688 1068.609375 896.050781 C 1039.996094 896.050781 1016.722656 872.777344 1016.722656 844.164062 C 1016.71875 841.359375 1016.945312 838.570312 1017.398438 835.800781 C 1017.847656 833.03125 1018.523438 830.3125 1019.417969 827.652344 C 1020.3125 824.992188 1021.417969 822.421875 1022.730469 819.945312 C 1024.046875 817.464844 1025.554688 815.105469 1027.253906 812.871094 C 1029.78125 811.382812 1032.414062 810.121094 1035.15625 809.082031 C 1032.078125 815.964844 1030.542969 823.171875 1030.546875 830.710938 C 1030.546875 860.03125 1054.402344 883.886719 1083.726562 883.886719 C 1089.128906 883.894531 1094.40625 883.097656 1099.566406 881.488281 Z M 1106.667969 857.613281 C 1106.667969 828.292969 1082.8125 804.4375 1053.492188 804.4375 C 1048.097656 804.433594 1042.824219 805.234375 1037.671875 806.839844 C 1039.03125 804.230469 1040.597656 801.757812 1042.375 799.414062 C 1046.347656 797.074219 1050.5625 795.296875 1055.011719 794.085938 C 1059.464844 792.875 1063.996094 792.273438 1068.609375 792.277344 C 1097.21875 792.277344 1120.496094 815.550781 1120.496094 844.160156 C 1120.5 846.964844 1120.273438 849.753906 1119.824219 852.523438 C 1119.371094 855.296875 1118.695312 858.011719 1117.800781 860.671875 C 1116.90625 863.332031 1115.800781 865.902344 1114.488281 868.382812 C 1113.171875 870.863281 1111.664062 873.21875 1109.964844 875.457031 C 1107.441406 876.941406 1104.804688 878.207031 1102.0625 879.246094 C 1105.144531 872.367188 1106.6875 865.15625 1106.6875 857.621094 Z M 1053.511719 909.503906 C 1024.898438 909.503906 1001.625 886.226562 1001.625 857.621094 C 1001.625 855.511719 1001.753906 853.410156 1002.011719 851.316406 C 1002.269531 849.222656 1002.652344 847.152344 1003.160156 845.105469 C 1003.667969 843.058594 1004.300781 841.050781 1005.054688 839.082031 C 1005.8125 837.113281 1006.683594 835.195312 1007.671875 833.332031 C 1008.660156 831.46875 1009.757812 829.671875 1010.964844 827.941406 C 1012.171875 826.214844 1013.480469 824.5625 1014.886719 822.992188 C 1016.296875 821.421875 1017.796875 819.945312 1019.382812 818.558594 C 1020.972656 817.171875 1022.640625 815.886719 1024.386719 814.703125 C 1021.46875 819.0625 1019.246094 823.75 1017.726562 828.769531 C 1016.203125 833.789062 1015.445312 838.921875 1015.449219 844.167969 C 1015.449219 873.488281 1039.304688 897.34375 1068.628906 897.34375 C 1072.8125 897.347656 1076.941406 896.863281 1081.015625 895.886719 C 1085.085938 894.910156 1088.984375 893.472656 1092.714844 891.570312 C 1090.285156 894.382812 1087.578125 896.910156 1084.605469 899.140625 C 1081.628906 901.371094 1078.449219 903.261719 1075.066406 904.808594 C 1071.683594 906.359375 1068.175781 907.527344 1064.542969 908.320312 C 1060.90625 909.109375 1057.230469 909.503906 1053.511719 909.503906 Z M 1097.734375 887.085938 C 1099.058594 885.105469 1100.242188 883.046875 1101.285156 880.910156 C 1103.53125 880.128906 1105.710938 879.195312 1107.828125 878.117188 C 1104.859375 881.542969 1101.5 884.535156 1097.75 887.085938 Z M 1112.851562 873.636719 C 1115.769531 869.277344 1117.988281 864.589844 1119.511719 859.566406 C 1121.035156 854.546875 1121.792969 849.414062 1121.789062 844.167969 C 1121.789062 814.847656 1097.933594 790.996094 1068.609375 790.996094 C 1064.425781 790.988281 1060.296875 791.476562 1056.222656 792.453125 C 1052.152344 793.425781 1048.253906 794.867188 1044.523438 796.769531 C 1046.957031 793.953125 1049.660156 791.429688 1052.636719 789.195312 C 1055.613281 786.964844 1058.792969 785.074219 1062.179688 783.527344 C 1065.5625 781.976562 1069.070312 780.808594 1072.707031 780.019531 C 1076.34375 779.226562 1080.023438 778.832031 1083.746094 778.835938 C 1112.347656 778.835938 1135.628906 802.109375 1135.628906 830.71875 C 1135.628906 832.828125 1135.5 834.929688 1135.242188 837.023438 C 1134.988281 839.117188 1134.601562 841.1875 1134.09375 843.234375 C 1133.585938 845.28125 1132.953125 847.289062 1132.199219 849.257812 C 1131.445312 851.230469 1130.574219 853.144531 1129.585938 855.007812 C 1128.597656 856.871094 1127.5 858.667969 1126.289062 860.398438 C 1125.082031 862.128906 1123.777344 863.777344 1122.367188 865.347656 C 1120.957031 866.917969 1119.460938 868.394531 1117.871094 869.78125 C 1116.28125 871.167969 1114.613281 872.453125 1112.867188 873.636719 Z M 1112.851562 873.636719 " fill-opacity="1" fill-rule="nonzero"/></g></svg>